<svg width="133" height="20" viewBox="0 0 133 20" fill="none" xmlns="http://www.w3.org/2000/svg">
<g id="Logo_main" clip-path="url(#clip0_18835_1116)">
<path id="Vector" d="M4.61548 14.5993H8.28774C9.10258 14.5993 9.69097 14.4561 10.0464 14.1677C10.4052 13.8819 10.5819 13.5006 10.5819 13.0264C10.5819 12.0457 9.87484 11.5567 8.46387 11.5567H4.61613V14.5993H4.61548ZM7.85355 7.85671C8.56774 7.85671 9.08258 7.71348 9.39548 7.4251C9.71097 7.13929 9.85742 6.80058 9.84193 6.41219C9.84193 5.95542 9.69355 5.62639 9.39548 5.42316C9.09742 5.22058 8.65097 5.11994 8.05806 5.11994H4.61548V7.85671H7.85355ZM0 18.8309V0.888323H8.97677C9.74129 0.888323 10.4555 0.968323 11.1187 1.12897C11.7832 1.28961 12.3606 1.55542 12.8529 1.92703C13.3452 2.298 13.7335 2.78961 14.0142 3.39671C14.2935 4.00316 14.4348 4.76639 14.4348 5.67671C14.4348 6.31865 14.2864 6.94123 13.9884 7.538C13.691 8.138 13.2768 8.60639 12.7516 8.9451C13.4658 9.28381 14.0516 9.79542 14.511 10.478C14.9703 11.1625 15.2 12.0457 15.2 13.127C15.2 14.1077 15.0206 14.9432 14.6645 15.6354C14.3064 16.3277 13.8645 16.8948 13.34 17.3335C12.5748 17.958 11.6871 18.3645 10.6755 18.5503C9.6276 18.739 8.56473 18.8321 7.5 18.8283H0V18.8309ZM32.0452 0.885742V5.1451H23.0419V7.88187H30.4645V11.938H23.0426V14.5993H32.0452V18.8309H18.4271V0.885742H32.0452ZM39.9006 12.0135V18.8309H35.2852V0.888323H39.9006V7.78123H42.3993L46.3006 0.888323H51.5548L46.2 9.47993L51.5019 18.8309H46.149L42.5032 12.0135H39.9006ZM69.7703 0.885742V18.8309H65.1574V5.09477H58.8329V18.8309H54.2174V0.885742H69.7703ZM80.3981 9.7051C81.2813 9.7051 81.9677 9.49929 82.4522 9.08574C82.9368 8.67155 83.1864 8.10252 83.2039 7.37477C83.2193 6.61477 83.0097 6.05284 82.5658 5.68897C82.1239 5.32574 81.3923 5.1451 80.3729 5.1451H77.6193V9.70768H80.3981V9.7051ZM80.5774 0.885742C81.6297 0.885742 82.5961 0.990903 83.4716 1.20187C84.3471 1.41219 85.1045 1.76832 85.7406 2.26768C86.3761 2.76703 86.871 3.42187 87.2193 4.23219C87.5677 5.0451 87.7419 6.04768 87.7419 7.24703C87.7239 8.48123 87.4819 9.53735 87.0148 10.4148C86.5675 11.2711 85.9147 12.0031 85.1148 12.5451C84.4864 12.9838 83.7645 13.3025 82.9464 13.4954C82.1316 13.689 81.2813 13.7864 80.3981 13.7864H77.6193V18.8309H73.0039V0.885742H80.5774ZM126.85 0.888323L122.464 8.74445L118.052 0.888323H112.213V18.8309H116.828V7.40058L121.469 15.2825H123.279L127.844 7.40058V18.8315H132.46V0.888323H126.85Z" fill="white"/>
<path id="Vector_2" d="M90.0965 8.79419C90.081 8.95484 90.2959 9.02 90.3791 8.88194C92.0068 6.15548 98.5152 2.98194 100.428 1.48452C101.102 1.05097 100.799 0.00709677 99.9939 0.00193548C99.9262 0 99.8552 0 99.7868 0C94.9088 0 90.5655 4.01097 90.0965 8.79419Z" fill="url(#paint0_linear_18835_1116)"/>
<path id="Vector_3" d="M99.9428 19.7141C104.904 19.8315 109.365 15.7754 109.843 10.9218C109.858 10.7612 109.643 10.696 109.56 10.8341C107.932 13.5605 101.424 16.7341 99.5112 18.2315C98.8344 18.6683 99.1402 19.7089 99.9428 19.7141Z" fill="white"/>
<path id="Vector_4" d="M101.904 0.438983C101.93 0.559628 101.94 0.684789 101.94 0.815112C101.94 1.43705 101.571 2.04931 101.105 2.41511L97.8466 4.51769L93.6014 7.25705L93.0215 7.63318C91.9091 8.4476 91.1364 9.64383 90.8514 10.9927C90.5664 12.3415 90.7891 13.7481 91.4769 14.9429C91.575 15.1054 91.6789 15.2687 91.7898 15.4241C92.2844 16.1398 92.8707 16.7875 93.5337 17.3506C93.6673 17.4667 93.8692 17.3358 93.8214 17.1654C93.8214 17.1629 93.8214 17.1629 93.8189 17.1603C93.5761 16.2872 93.5866 15.3631 93.8492 14.4958C94.1769 13.4153 94.8723 12.4836 95.815 11.8622L97.6344 10.688L100.801 8.64414L103.592 6.84027C104.084 6.49955 104.485 6.04314 104.759 5.51121C105.033 4.97929 105.173 4.38814 105.165 3.78978C105.157 3.19141 105.002 2.60418 104.713 2.07974C104.425 1.5553 104.013 1.10972 103.512 0.782208C103.084 0.514589 102.61 0.328652 102.114 0.233821C102.101 0.230596 102.091 0.230596 102.078 0.230596C102.052 0.229588 102.026 0.2346 102.002 0.245248C101.978 0.255895 101.957 0.271895 101.94 0.292017C101.923 0.31214 101.911 0.33585 101.905 0.361327C101.899 0.386804 101.898 0.413369 101.904 0.438983Z" fill="url(#paint1_linear_18835_1116)"/>
<path id="Vector_5" d="M96.3736 18.9002C96.3968 18.915 96.4168 18.9305 96.4394 18.9427C96.9671 19.2815 97.5168 19.4292 97.8375 19.4918C97.8659 19.4975 97.8954 19.496 97.9231 19.4876C97.9509 19.4791 97.9762 19.464 97.9967 19.4434C98.0172 19.4228 98.0323 19.3975 98.0406 19.3697C98.049 19.3419 98.0503 19.3125 98.0446 19.284C98.0199 19.1602 98.008 19.0342 98.0091 18.9079C98.0091 18.2853 98.3775 17.6711 98.8446 17.3047L102.103 15.2028L106.347 12.4634L106.93 12.0873C108.042 11.2727 108.815 10.0764 109.1 8.72768C109.385 7.37893 109.162 5.97245 108.475 4.77759C108.376 4.61387 108.271 4.45336 108.162 4.2963C107.667 3.58165 107.082 2.93411 106.421 2.36985C106.391 2.34495 106.355 2.33012 106.317 2.32755C106.278 2.32498 106.24 2.33481 106.208 2.35558C106.176 2.37634 106.151 2.40695 106.138 2.44287C106.124 2.47879 106.122 2.51811 106.133 2.55501C106.319 3.2193 106.358 3.91589 106.249 4.59694C106.214 4.80962 106.166 5.01991 106.105 5.22662C105.777 6.30702 105.081 7.23865 104.139 7.86017L102.319 9.03436L99.1523 11.0789L96.3613 12.8802C95.8763 13.2165 95.48 13.6653 95.2062 14.1882C94.9324 14.7111 94.7893 15.2925 94.7891 15.8827C94.7879 16.4766 94.9316 17.0619 95.2077 17.5877C95.4838 18.1135 95.884 18.564 96.3736 18.9002Z" fill="white"/>
</g>
<defs>
<linearGradient id="paint0_linear_18835_1116" x1="90.0959" y1="4.47871" x2="100.8" y2="4.47871" gradientUnits="userSpaceOnUse">
<stop stop-color="#F5B316"/>
<stop offset="1" stop-color="#F5851A"/>
</linearGradient>
<linearGradient id="paint1_linear_18835_1116" x1="90.7292" y1="8.81124" x2="105.161" y2="8.81124" gradientUnits="userSpaceOnUse">
<stop stop-color="#F5B316"/>
<stop offset="1" stop-color="#F5851A"/>
</linearGradient>
<clipPath id="clip0_18835_1116">
<rect width="132.903" height="20" fill="white"/>
</clipPath>
</defs>
</svg>
