<svg width="149" height="24" viewBox="0 0 149 24" fill="none" xmlns="http://www.w3.org/2000/svg">
<g clip-path="url(#clip0_18728_2863)">
<path d="M5.1745 17.1557H9.29152C10.2051 17.1557 10.8647 16.9952 11.2632 16.6718C11.6654 16.3514 11.8636 15.924 11.8636 15.3923C11.8636 14.2929 11.0708 13.7446 9.48899 13.7446H5.17522V17.1557H5.1745ZM8.80474 9.59652C9.60544 9.59652 10.1826 9.43594 10.5334 9.11263C10.8871 8.79221 11.0513 8.41247 11.034 7.97705C11.034 7.46495 10.8676 7.09607 10.5334 6.86823C10.1993 6.64111 9.69874 6.52827 9.03403 6.52827H5.1745V9.59652H8.80474ZM0 21.8999V1.78414H10.064C10.9211 1.78414 11.7218 1.87383 12.4654 2.05393C13.2104 2.23404 13.8577 2.53204 14.4096 2.94866C14.9615 3.36456 15.3969 3.91571 15.7115 4.59634C16.0247 5.27624 16.1831 6.13191 16.1831 7.15248C16.1831 7.87217 16.0168 8.57015 15.6826 9.23921C15.3492 9.91188 14.8848 10.437 14.296 10.8167C15.0967 11.1965 15.7535 11.77 16.2685 12.5353C16.7835 13.3027 17.041 14.2929 17.041 15.5052C17.041 16.6046 16.8399 17.5413 16.4406 18.3174C16.0392 19.0935 15.5437 19.7292 14.9557 20.2211C14.0979 20.9212 13.1026 21.3769 11.9685 21.5852C10.7937 21.7968 9.60207 21.9012 8.40837 21.897H0V21.8999ZM35.9264 1.78125V6.55648H25.8327V9.62473H34.1543V14.1721H25.8334V17.1557H35.9264V21.8999H20.6589V1.78125H35.9264ZM44.7333 14.2567V21.8999H39.5588V1.78414H44.7333V9.51189H47.5346L51.9084 1.78414H57.799L51.7956 11.4163L57.7397 21.8999H51.7384L47.6511 14.2567H44.7333ZM78.2207 1.78125V21.8999H73.0491V6.50007H65.9585V21.8999H60.784V1.78125H78.2207ZM90.1356 11.6688C91.1258 11.6688 91.8954 11.438 92.4386 10.9744C92.9818 10.51 93.2617 9.8721 93.2812 9.05621C93.2986 8.20416 93.0635 7.57417 92.5659 7.16623C92.0704 6.75901 91.2502 6.55648 90.1074 6.55648H87.0203V11.6717H90.1356V11.6688ZM90.3367 1.78125C91.5164 1.78125 92.5999 1.89915 93.5814 2.13567C94.5629 2.37146 95.4121 2.77073 96.1253 3.33056C96.8377 3.8904 97.3925 4.62455 97.7831 5.53301C98.1736 6.44437 98.3689 7.56838 98.3689 8.913C98.3487 10.2967 98.0774 11.4807 97.5538 12.4644C97.0523 13.4245 96.3204 14.2451 95.4237 14.8527C94.7192 15.3446 93.9098 15.7019 92.9926 15.9182C92.0791 16.1352 91.1258 16.2444 90.1356 16.2444H87.0203V21.8999H81.8458V1.78125H90.3367ZM142.213 1.78414L137.296 10.5918L132.35 1.78414H125.804V21.8999H130.978V9.08514L136.181 17.9217H138.21L143.328 9.08514V21.9006H148.503V1.78414H142.213Z" fill="#283142"/>
<path d="M101.007 10.6484C100.989 10.8285 101.23 10.9015 101.324 10.7467C103.148 7.69008 110.445 4.13216 112.59 2.45338C113.345 1.96732 113.006 0.797019 112.103 0.791232C112.027 0.789062 111.947 0.789062 111.871 0.789062C106.402 0.789062 101.533 5.28582 101.007 10.6484Z" fill="url(#paint0_linear_18728_2863)"/>
<path d="M112.048 22.8905C117.61 23.0221 122.612 18.4747 123.147 13.0333C123.164 12.8532 122.924 12.7802 122.83 12.935C121.005 15.9916 113.709 19.5496 111.564 21.2283C110.805 21.718 111.148 22.8847 112.048 22.8905Z" fill="#283142"/>
<path d="M114.246 1.28113C114.275 1.41639 114.285 1.55671 114.285 1.70282C114.285 2.40008 113.872 3.08649 113.349 3.4966L109.697 5.85384L104.937 8.92498L104.287 9.34666C103.04 10.2597 102.174 11.6008 101.854 13.113C101.535 14.6252 101.785 16.2022 102.556 17.5417C102.666 17.7239 102.782 17.9069 102.906 18.0812C103.461 18.8836 104.118 19.6097 104.862 20.241C105.011 20.3712 105.238 20.2244 105.184 20.0334C105.184 20.0305 105.184 20.0305 105.181 20.0276C104.909 19.0488 104.921 18.0128 105.215 17.0404C105.583 15.8291 106.362 14.7846 107.419 14.0879L109.459 12.7715L113.009 10.4801L116.138 8.45772C116.69 8.07573 117.139 7.56405 117.447 6.96769C117.754 6.37134 117.91 5.70859 117.901 5.03776C117.892 4.36693 117.718 3.70857 117.395 3.12061C117.072 2.53265 116.61 2.03311 116.048 1.66593C115.568 1.3659 115.037 1.15744 114.481 1.05112C114.467 1.04751 114.455 1.04751 114.441 1.04751C114.412 1.04638 114.382 1.05199 114.355 1.06393C114.329 1.07587 114.305 1.09381 114.286 1.11637C114.267 1.13893 114.254 1.16551 114.247 1.19407C114.24 1.22263 114.239 1.25242 114.246 1.28113Z" fill="url(#paint1_linear_18728_2863)"/>
<path d="M108.046 21.9787C108.072 21.9954 108.094 22.0127 108.12 22.0265C108.711 22.4062 109.328 22.5718 109.687 22.642C109.719 22.6484 109.752 22.6467 109.783 22.6373C109.814 22.6278 109.843 22.6108 109.866 22.5878C109.889 22.5647 109.906 22.5363 109.915 22.5052C109.924 22.474 109.926 22.441 109.919 22.4091C109.892 22.2703 109.878 22.129 109.88 21.9874C109.88 21.2894 110.293 20.6008 110.816 20.19L114.469 17.8335L119.227 14.7624L119.881 14.3407C121.128 13.4274 121.994 12.0863 122.314 10.5742C122.633 9.06208 122.384 7.48524 121.613 6.14567C121.502 5.96212 121.385 5.78217 121.262 5.60609C120.707 4.80488 120.051 4.07891 119.31 3.44631C119.277 3.4184 119.236 3.40177 119.193 3.39889C119.15 3.39601 119.108 3.40702 119.072 3.43031C119.035 3.45359 119.008 3.48791 118.992 3.52818C118.977 3.56845 118.976 3.61253 118.987 3.6539C119.195 4.39864 119.24 5.17961 119.118 5.94314C119.078 6.18157 119.025 6.41734 118.956 6.64909C118.588 7.86034 117.808 8.9048 116.752 9.6016L114.712 10.918L111.161 13.2101L108.032 15.2296C107.488 15.6067 107.044 16.1099 106.737 16.6961C106.43 17.2823 106.27 17.9341 106.27 18.5958C106.268 19.2617 106.429 19.9178 106.739 20.5072C107.048 21.0967 107.497 21.6018 108.046 21.9787Z" fill="#283142"/>
</g>
<defs>
<linearGradient id="paint0_linear_18728_2863" x1="101.006" y1="5.81022" x2="113.007" y2="5.81022" gradientUnits="userSpaceOnUse">
<stop stop-color="#F5B316"/>
<stop offset="1" stop-color="#F5851A"/>
</linearGradient>
<linearGradient id="paint1_linear_18728_2863" x1="101.717" y1="10.6674" x2="117.898" y2="10.6674" gradientUnits="userSpaceOnUse">
<stop stop-color="#F5B316"/>
<stop offset="1" stop-color="#F5851A"/>
</linearGradient>
<clipPath id="clip0_18728_2863">
<rect width="149" height="22.4223" fill="white" transform="translate(0 0.789062)"/>
</clipPath>
</defs>
</svg>
