<svg width="24" height="24" viewBox="0 0 24 24" fill="none" xmlns="http://www.w3.org/2000/svg">
<g id="24px / Shopping Basket">
<path id="Icon" d="M21.5 2C22.0523 2 22.5 2.44772 22.5 3C22.5 3.55228 22.0523 4 21.5 4V2ZM19.2313 3L18.2691 2.72769C18.391 2.29719 18.7839 2 19.2313 2V3ZM15.5448 16.0263L16.507 16.2986C16.373 16.772 15.9145 17.0776 15.426 17.0192L15.5448 16.0263ZM4.20149 14.6694L4.08272 15.6623C3.65907 15.6116 3.31424 15.2977 3.22408 14.8807L4.20149 14.6694ZM2.5 6.79933L1.52258 7.01065C1.4587 6.71516 1.53192 6.40664 1.72176 6.17137C1.9116 5.93609 2.19769 5.79933 2.5 5.79933V6.79933ZM18.1561 6.79933L19.1183 7.07165L19.1183 7.07165L18.1561 6.79933ZM21.5 4H19.2313V2H21.5V4ZM15.426 17.0192L4.08272 15.6623L4.32027 13.6765L15.6636 15.0334L15.426 17.0192ZM3.22408 14.8807L1.52258 7.01065L3.47742 6.58802L5.17891 14.4581L3.22408 14.8807ZM20.1936 3.27231L19.1183 7.07165L17.1939 6.52702L18.2691 2.72769L20.1936 3.27231ZM19.1183 7.07165L16.507 16.2986L14.5826 15.754L17.1939 6.52702L19.1183 7.07165ZM2.5 5.79933H18.1561V7.79933H2.5V5.79933ZM13 19.5795C13 19.7707 13.175 20 13.4844 20V22C12.1542 22 11 20.9573 11 19.5795H13ZM13.4844 20C13.7938 20 13.9687 19.7707 13.9687 19.5795H15.9687C15.9687 20.9573 14.8146 22 13.4844 22V20ZM13.9687 19.5795C13.9687 19.3882 13.7938 19.159 13.4844 19.159V17.159C14.8146 17.159 15.9687 18.2017 15.9687 19.5795H13.9687ZM13.4844 19.159C13.175 19.159 13 19.3882 13 19.5795H11C11 18.2017 12.1542 17.159 13.4844 17.159V19.159ZM5.08333 19.5795C5.08333 19.7707 5.25829 20 5.56771 20V22C4.23753 22 3.08333 20.9573 3.08333 19.5795H5.08333ZM5.56771 20C5.87712 20 6.05208 19.7707 6.05208 19.5795H8.05208C8.05208 20.9573 6.89789 22 5.56771 22V20ZM6.05208 19.5795C6.05208 19.3882 5.87712 19.159 5.56771 19.159V17.159C6.89789 17.159 8.05208 18.2017 8.05208 19.5795H6.05208ZM5.56771 19.159C5.25829 19.159 5.08333 19.3882 5.08333 19.5795H3.08333C3.08333 18.2017 4.23753 17.159 5.56771 17.159V19.159Z" fill="#283142"/>
</g>
</svg>
