<svg width="70" height="70" viewBox="0 0 70 70" fill="none" xmlns="http://www.w3.org/2000/svg">
<g id="bxs:quote-alt-left" opacity="0.1">
<path id="Vector" d="M18.9579 30.4126C18.3075 30.4126 17.6833 30.5118 17.0621 30.6022C17.2633 29.9255 17.4704 29.2372 17.8029 28.6189C18.1354 27.7205 18.6546 26.9418 19.1708 26.1572C19.6025 25.3085 20.3637 24.7339 20.9237 24.0076C21.51 23.3018 22.3092 22.8322 22.9421 22.246C23.5633 21.6335 24.3771 21.3272 25.0246 20.8955C25.7012 20.5076 26.2904 20.0789 26.9204 19.8747L28.4925 19.2272L29.875 18.6526L28.4604 13.0001L26.7192 13.4201C26.1621 13.5601 25.4825 13.7235 24.7096 13.9189C23.9192 14.0647 23.0762 14.4643 22.1371 14.8289C21.2096 15.243 20.1362 15.523 19.1387 16.188C18.1354 16.8239 16.9775 17.3547 15.9567 18.2064C14.9679 19.0843 13.775 19.8455 12.8942 20.9626C11.9317 22.0068 10.9808 23.1035 10.2429 24.3518C9.38832 25.5418 8.8079 26.8485 8.1954 28.1405C7.64124 29.4326 7.19499 30.7539 6.8304 32.0372C6.13915 34.6097 5.82999 37.0539 5.7104 39.1451C5.61124 41.2393 5.66957 42.9805 5.79207 44.2405C5.83582 44.8355 5.91749 45.413 5.97582 45.8126L6.04874 46.3026L6.12457 46.2851C6.64333 48.7084 7.83754 50.9352 9.56905 52.7081C11.3006 54.481 13.4986 55.7275 15.9089 56.3034C18.3193 56.8792 20.8434 56.7609 23.1893 55.9621C25.5352 55.1634 27.607 53.7168 29.1651 51.7897C30.7232 49.8626 31.7039 47.5338 31.9937 45.0727C32.2835 42.6115 31.8707 40.1186 30.8029 37.8823C29.7351 35.646 28.056 33.7576 25.9598 32.4358C23.8636 31.1139 21.4361 30.4125 18.9579 30.4126ZM51.0412 30.4126C50.3908 30.4126 49.7667 30.5118 49.1454 30.6022C49.3466 29.9255 49.5537 29.2372 49.8862 28.6189C50.2187 27.7205 50.7379 26.9418 51.2542 26.1572C51.6858 25.3085 52.4471 24.7339 53.0071 24.0076C53.5933 23.3018 54.3925 22.8322 55.0254 22.246C55.6466 21.6335 56.4604 21.3272 57.1079 20.8955C57.7846 20.5076 58.3737 20.0789 59.0037 19.8747L60.5758 19.2272L61.9583 18.6526L60.5437 13.0001L58.8025 13.4201C58.2454 13.5601 57.5658 13.7235 56.7929 13.9189C56.0025 14.0647 55.1596 14.4643 54.2204 14.8289C53.2958 15.246 52.2196 15.523 51.2221 16.191C50.2187 16.8268 49.0608 17.3576 48.04 18.2093C47.0512 19.0872 45.8583 19.8485 44.9775 20.9626C44.015 22.0068 43.0641 23.1035 42.3262 24.3518C41.4716 25.5418 40.8912 26.8485 40.2787 28.1405C39.7246 29.4326 39.2783 30.7539 38.9137 32.0372C38.2225 34.6097 37.9133 37.0539 37.7937 39.1451C37.6946 41.2393 37.7529 42.9805 37.8754 44.2405C37.9192 44.8355 38.0008 45.413 38.0592 45.8126L38.1321 46.3026L38.2079 46.2851C38.7267 48.7084 39.9209 50.9352 41.6524 52.7081C43.3839 54.481 45.5819 55.7275 47.9923 56.3034C50.4026 56.8792 52.9267 56.7609 55.2726 55.9621C57.6185 55.1634 59.6903 53.7168 61.2484 51.7897C62.8065 49.8626 63.7872 47.5338 64.077 45.0727C64.3669 42.6115 63.954 40.1186 62.8862 37.8823C61.8184 35.646 60.1393 33.7576 58.0431 32.4358C55.947 31.1139 53.5194 30.4125 51.0412 30.4126Z" fill="#283142"/>
</g>
</svg>
