<svg width="16" height="16" viewBox="0 0 16 16" fill="none" xmlns="http://www.w3.org/2000/svg">
<g id="bxs:discount">
<path id="Vector" d="M14 3.33337H2.00004C1.82323 3.33337 1.65366 3.40361 1.52864 3.52864C1.40361 3.65366 1.33337 3.82323 1.33337 4.00004V6.66671H1.92871C2.59271 6.66671 3.20871 7.12071 3.31537 7.77604C3.34787 7.9674 3.33821 8.16354 3.28708 8.35079C3.23595 8.53803 3.14458 8.71186 3.01934 8.86014C2.89409 9.00843 2.738 9.12759 2.56195 9.20933C2.3859 9.29106 2.19414 9.3334 2.00004 9.33337H1.33337V12C1.33337 12.1769 1.40361 12.3464 1.52864 12.4714C1.65366 12.5965 1.82323 12.6667 2.00004 12.6667H14C14.1769 12.6667 14.3464 12.5965 14.4714 12.4714C14.5965 12.3464 14.6667 12.1769 14.6667 12V9.33337H14C13.8059 9.3334 13.6142 9.29106 13.4381 9.20933C13.2621 9.12759 13.106 9.00843 12.9807 8.86014C12.8555 8.71186 12.7641 8.53803 12.713 8.35079C12.6619 8.16354 12.6522 7.9674 12.6847 7.77604C12.7914 7.12071 13.4074 6.66671 14.0714 6.66671H14.6667V4.00004C14.6667 3.82323 14.5965 3.65366 14.4714 3.52864C14.3464 3.40361 14.1769 3.33337 14 3.33337ZM6.00004 6.00004C6.17685 6.00004 6.34642 6.07028 6.47144 6.1953C6.59647 6.32033 6.66671 6.4899 6.66671 6.66671C6.66671 6.84352 6.59647 7.01309 6.47144 7.13811C6.34642 7.26314 6.17685 7.33337 6.00004 7.33337C5.82323 7.33337 5.65366 7.26314 5.52864 7.13811C5.40361 7.01309 5.33337 6.84352 5.33337 6.66671C5.33337 6.4899 5.40361 6.32033 5.52864 6.1953C5.65366 6.07028 5.82323 6.00004 6.00004 6.00004ZM5.46671 10.2667L9.46671 4.93337L10.5334 5.73337L6.53337 11.0667L5.46671 10.2667ZM10 10C9.82323 10 9.65366 9.9298 9.52864 9.80478C9.40361 9.67975 9.33337 9.51018 9.33337 9.33337C9.33337 9.15656 9.40361 8.98699 9.52864 8.86197C9.65366 8.73695 9.82323 8.66671 10 8.66671C10.1769 8.66671 10.3464 8.73695 10.4714 8.86197C10.5965 8.98699 10.6667 9.15656 10.6667 9.33337C10.6667 9.51018 10.5965 9.67975 10.4714 9.80478C10.3464 9.9298 10.1769 10 10 10Z" fill="#C9CBD0"/>
</g>
</svg>
