<svg width="16" height="16" viewBox="0 0 16 16" fill="none" xmlns="http://www.w3.org/2000/svg">
<g id="16px / Clock">
<path id="Icon (Stroke)" fill-rule="evenodd" clip-rule="evenodd" d="M8.33268 2.66634C5.38716 2.66634 2.99935 5.05416 2.99935 7.99967C2.99935 10.9452 5.38716 13.333 8.33268 13.333C11.2782 13.333 13.666 10.9452 13.666 7.99967C13.666 5.05416 11.2782 2.66634 8.33268 2.66634ZM1.66602 7.99967C1.66602 4.31778 4.65078 1.33301 8.33268 1.33301C12.0146 1.33301 14.9993 4.31778 14.9993 7.99967C14.9993 11.6816 12.0146 14.6663 8.33268 14.6663C4.65078 14.6663 1.66602 11.6816 1.66602 7.99967ZM8.33268 4.94692C8.70087 4.94692 8.99935 5.2454 8.99935 5.61359V8.26917L10.7935 8.86722C11.1428 8.98365 11.3316 9.3612 11.2151 9.71049C11.0987 10.0598 10.7212 10.2486 10.3719 10.1321L8.12186 9.38213C7.84964 9.29139 7.66602 9.03663 7.66602 8.74967V5.61359C7.66602 5.2454 7.96449 4.94692 8.33268 4.94692Z" fill="#283142"/>
</g>
</svg>
