<svg width="25" height="24" viewBox="0 0 25 24" fill="none" xmlns="http://www.w3.org/2000/svg">
<g id="24px / Compare">
<g id="Icon">
<path d="M5.24428 1.7998H3.30078V22.1998H5.24428L5.24428 1.7998Z" fill="#283142"/>
<path fill-rule="evenodd" clip-rule="evenodd" d="M9.15276 4.7998C7.91112 4.7998 6.89475 5.77943 6.89475 6.9998V8.9998C6.89475 10.2202 7.91112 11.1998 9.15276 11.1998H19.4428C20.6844 11.1998 21.7008 10.2202 21.7008 8.9998V6.9998C21.7008 5.77943 20.6844 4.7998 19.4428 4.7998H9.15276ZM8.83825 6.9998C8.83825 6.83947 8.97363 6.6998 9.15276 6.6998H19.4428C19.6219 6.6998 19.7573 6.83947 19.7573 6.9998V8.9998C19.7573 9.16014 19.6219 9.2998 19.4428 9.2998H9.15276C8.97363 9.2998 8.83825 9.16014 8.83825 8.9998V6.9998Z" fill="#283142"/>
<path fill-rule="evenodd" clip-rule="evenodd" d="M9.15276 12.7998C7.91112 12.7998 6.89475 13.7794 6.89475 14.9998V16.9998C6.89475 18.2202 7.91112 19.1998 9.15276 19.1998H15.3268C16.5684 19.1998 17.5848 18.2202 17.5848 16.9998V14.9998C17.5848 13.7794 16.5684 12.7998 15.3268 12.7998H9.15276ZM8.83825 14.9998C8.83825 14.8395 8.97363 14.6998 9.15276 14.6998H15.3268C15.5059 14.6998 15.6413 14.8395 15.6413 14.9998V16.9998C15.6413 17.1601 15.5059 17.2998 15.3268 17.2998H9.15276C8.97363 17.2998 8.83825 17.1601 8.83825 16.9998V14.9998Z" fill="#283142"/>
</g>
</g>
</svg>
