<svg width="21" height="20" viewBox="0 0 21 20" fill="none" xmlns="http://www.w3.org/2000/svg">
<path d="M13.9096 1.96777H7.11289C6.34633 1.96777 5.72266 2.59142 5.72266 3.35801V4.59378H15.2998V3.35801C15.2998 2.59142 14.6761 1.96777 13.9096 1.96777Z" fill="#C9CBD0"/>
<path d="M12.3736 10.927C12.1132 10.9263 11.9014 10.7184 11.9014 10.4636V9.07332H12.9827C13.1056 9.07332 13.2235 9.0245 13.3103 8.93758L15.164 7.08394C15.2509 6.99706 15.2997 6.87921 15.2997 6.75628V5.52051H5.72266V6.75628C5.72266 6.87921 5.77151 6.99706 5.85839 7.08394L7.71203 8.93758C7.79894 9.02453 7.9168 9.07332 8.0397 9.07332H9.121V10.4636C9.121 12.2474 10.5722 13.7026 12.3561 13.7074C12.6165 13.7081 12.8283 13.916 12.8283 14.1708V14.7887C12.8283 15.0442 12.6204 15.2521 12.3649 15.2521H10.5267C9.92192 15.2521 9.42993 14.7601 9.42993 14.1554V13.8619C9.42993 13.0953 8.80629 12.4716 8.0397 12.4716C7.2731 12.4716 6.64946 13.0953 6.64946 13.8619V14.1554C6.64946 16.2933 8.38876 18.0326 10.5266 18.0326H12.3648C14.1535 18.0326 15.6087 16.5774 15.6087 14.7887V14.1708C15.6087 12.3869 14.1575 10.9318 12.3736 10.927ZM10.8201 7.37418H10.2023C9.94633 7.37418 9.73887 7.16668 9.73887 6.91078C9.73887 6.65487 9.94636 6.44737 10.2023 6.44737H10.8201C11.0761 6.44737 11.2835 6.65487 11.2835 6.91078C11.2835 7.16668 11.0761 7.37418 10.8201 7.37418Z" fill="#C9CBD0"/>
</svg>
