<svg width="16" height="16" viewBox="0 0 16 16" fill="none" xmlns="http://www.w3.org/2000/svg">
<g id="16px / Download">
<path id="Icon (Stroke)" fill-rule="evenodd" clip-rule="evenodd" d="M8.00074 1.33301C8.36893 1.33301 8.66741 1.63148 8.66741 1.99967V8.3539L10.5774 6.44738C10.838 6.18726 11.2601 6.18764 11.5202 6.44823C11.7803 6.70881 11.7799 7.13092 11.5193 7.39104L8.47172 10.4331C8.21147 10.6929 7.79002 10.6929 7.52977 10.4331L4.48215 7.39104C4.22156 7.13092 4.22118 6.70881 4.48129 6.44823C4.74141 6.18764 5.16352 6.18726 5.4241 6.44738L7.33408 8.3539V1.99967C7.33408 1.63148 7.63255 1.33301 8.00074 1.33301ZM13.3333 9.46927C13.7015 9.46927 14 9.76775 14 10.1359V12.5947C14 13.1332 13.7973 13.6562 13.4264 14.0471C13.0543 14.4391 12.542 14.6663 12 14.6663H4C3.45797 14.6663 2.94567 14.4391 2.57362 14.0471C2.20268 13.6562 2 13.1332 2 12.5947L2 10.1359C2 9.76775 2.29848 9.46927 2.66667 9.46927C3.03486 9.46927 3.33333 9.76775 3.33333 10.1359L3.33333 12.5947C3.33333 12.8014 3.4116 12.9931 3.54077 13.1293C3.66881 13.2642 3.83479 13.333 4 13.333H12C12.1652 13.333 12.3312 13.2642 12.4592 13.1293C12.5884 12.9931 12.6667 12.8014 12.6667 12.5947V10.1359C12.6667 9.76775 12.9651 9.46927 13.3333 9.46927Z" fill="#9398A0"/>
</g>
</svg>
