<svg width="16" height="17" viewBox="0 0 16 17" fill="none" xmlns="http://www.w3.org/2000/svg">
<g id="16px / Eye-open">
<path id="Icon (Stroke)" fill-rule="evenodd" clip-rule="evenodd" d="M2.31442 8.56849C2.35872 8.6695 2.42107 8.80272 2.50334 8.95884C2.703 9.3377 3.0162 9.8443 3.46747 10.3517C4.36267 11.3582 5.79662 12.3674 8.011 12.4036C10.211 12.4396 11.6355 11.4384 12.5288 10.416C12.9795 9.90016 13.2929 9.37981 13.4931 8.98846C13.5787 8.82126 13.6428 8.67909 13.6876 8.57293C13.644 8.46431 13.5812 8.31821 13.4967 8.14595C13.3007 7.74622 12.9923 7.21393 12.5446 6.68394C11.6573 5.63334 10.2309 4.59505 8.0001 4.59505C5.76931 4.59505 4.34293 5.63334 3.45556 6.68394C3.00791 7.21393 2.69949 7.74622 2.50349 8.14595C2.42018 8.31587 2.35791 8.46035 2.31442 8.56849ZM14.4001 8.57914C15.0363 8.37991 15.0362 8.37959 15.0361 8.37925L15.0359 8.37849L15.0353 8.37664L15.0337 8.37167L15.0288 8.35671C15.0248 8.34454 15.0192 8.32803 15.012 8.30747C14.9977 8.26635 14.9769 8.20894 14.9492 8.13757C14.8937 7.99494 14.81 7.79581 14.6939 7.55896C14.4623 7.08668 14.0976 6.45628 13.5632 5.82358C12.4865 4.54881 10.7129 3.26172 8.0001 3.26172C5.2873 3.26172 3.51367 4.54881 2.43695 5.82358C1.90255 6.45628 1.53789 7.08668 1.30632 7.55896C1.19019 7.79581 1.10653 7.99494 1.05104 8.13757C1.02327 8.20894 1.00248 8.26635 0.988146 8.30747C0.980977 8.32803 0.975416 8.34454 0.971398 8.35671L0.966517 8.37167L0.964928 8.37664L0.964343 8.37849L0.964103 8.37925C0.963997 8.37959 0.963897 8.37991 1.6001 8.57914L0.963897 8.37991L0.898438 8.58894L0.96971 8.79606L1.6001 8.57914C0.96971 8.79606 0.96982 8.79638 0.969937 8.79672L0.970199 8.79748L0.970833 8.7993L0.972537 8.80416L0.977715 8.81864C0.981959 8.83037 0.987804 8.84622 0.995308 8.86593C1.01031 8.90533 1.03197 8.9602 1.06078 9.02836C1.11834 9.16456 1.2047 9.35448 1.32377 9.58044C1.5613 10.0312 1.93271 10.6324 2.47119 11.2378C3.55548 12.4569 5.32153 13.6932 7.9892 13.7368C10.6712 13.7806 12.4468 12.5363 13.5329 11.2933C14.0719 10.6763 14.4432 10.0589 14.6801 9.59573C14.799 9.36342 14.8851 9.16787 14.9424 9.0277C14.9711 8.95756 14.9926 8.9011 15.0075 8.86064C15.015 8.8404 15.0208 8.82414 15.0249 8.81215L15.03 8.7974L15.0317 8.79248L15.0323 8.79066L15.0326 8.7899C15.0327 8.78956 15.0328 8.78925 14.4001 8.57914ZM14.4001 8.57914L15.0328 8.78925L15.1006 8.58514L15.0363 8.37991L14.4001 8.57914ZM2.2358 8.77994C2.23573 8.78019 2.23573 8.78016 2.23583 8.77987L2.2358 8.77994ZM8.0001 7.62902C7.46736 7.62902 7.06676 8.04463 7.06676 8.51926C7.06676 8.99388 7.46736 9.4095 8.0001 9.4095C8.53284 9.4095 8.93343 8.99388 8.93343 8.51926C8.93343 8.04463 8.53284 7.62902 8.0001 7.62902ZM5.73343 8.51926C5.73343 7.27417 6.76553 6.29569 8.0001 6.29569C9.23467 6.29569 10.2668 7.27417 10.2668 8.51926C10.2668 9.76434 9.23467 10.7428 8.0001 10.7428C6.76553 10.7428 5.73343 9.76434 5.73343 8.51926Z" fill="#283142"/>
</g>
</svg>
