<svg width="20" height="20" viewBox="0 0 20 20" fill="none" xmlns="http://www.w3.org/2000/svg">
<path d="M10 8.58984C9.22246 8.58984 8.58984 9.22243 8.58984 10C8.58984 10.7776 9.22243 11.4102 10 11.4102C10.7776 11.4102 11.4102 10.7776 11.4102 10C11.4102 9.22243 10.7776 8.58984 10 8.58984Z" fill="#C9CBD0"/>
<path d="M17.05 8.27663H15.2066C15.1228 8.02326 15.0202 7.77612 14.8998 7.53704L16.2036 6.23316C16.6312 5.80554 16.6312 5.10971 16.2036 4.68206L15.3173 3.79572C14.8896 3.36806 14.1938 3.36809 13.7661 3.79572L12.4623 5.09956C12.2232 4.97913 11.9761 4.87655 11.7227 4.79269V2.94935C11.7227 2.34455 11.2307 1.85254 10.6259 1.85254H9.37243C8.76766 1.85254 8.27562 2.34455 8.27562 2.94935V4.79272C8.02222 4.87662 7.77511 4.97916 7.53603 5.09959L6.23219 3.79575C5.80456 3.36809 5.10871 3.36813 4.68105 3.79575L3.7948 4.68209C3.36718 5.10971 3.36718 5.80554 3.7948 6.2332L5.09862 7.53707C4.97815 7.77615 4.87561 8.02329 4.79174 8.27666H2.94837C2.34357 8.27663 1.85156 8.76867 1.85156 9.37344V10.6269C1.85156 11.2317 2.34357 11.7237 2.94837 11.7237H4.79174C4.87564 11.9771 4.97815 12.2243 5.09862 12.4633L3.79477 13.7672C3.36715 14.1948 3.36715 14.8906 3.79477 15.3183L4.68111 16.2046C5.10874 16.6323 5.8046 16.6323 6.23225 16.2046L7.53606 14.9008C7.77515 15.0212 8.02231 15.1238 8.27568 15.2077V17.0511C8.27568 17.6558 8.76769 18.1479 9.3725 18.1479H10.626C11.2308 18.1479 11.7228 17.6559 11.7228 17.0511V15.2077C11.9762 15.1238 12.2233 15.0212 12.4624 14.9008L13.7662 16.2047C14.1939 16.6323 14.8897 16.6323 15.3174 16.2047L16.2037 15.3183C16.6313 14.8907 16.6313 14.1948 16.2037 13.7672L14.8999 12.4633C15.0203 12.2243 15.1229 11.9771 15.2067 11.7237H17.0501C17.6549 11.7237 18.1469 11.2317 18.1469 10.6269V9.37344C18.1468 8.76867 17.6548 8.27663 17.05 8.27663ZM9.9992 12.3504C8.70324 12.3504 7.64892 11.2961 7.64892 10.0002C7.64892 8.70422 8.70324 7.6499 9.9992 7.6499C11.2951 7.6499 12.3495 8.70422 12.3495 10.0002C12.3495 11.2961 11.2951 12.3504 9.9992 12.3504Z" fill="#C9CBD0"/>
</svg>
