<svg width="36" height="36" viewBox="0 0 36 36" fill="none" xmlns="http://www.w3.org/2000/svg">
<g id="gravity-ui:tag-ruble">
<path id="Vector" fill-rule="evenodd" clip-rule="evenodd" d="M16.343 7.88909L6.58989 17.6499C6.2165 18.0237 6.00575 18.5301 6.0035 19.0587C6.00125 19.5874 6.20768 20.0955 6.57788 20.4725L15.3296 29.3933C15.702 29.7724 16.2095 29.9878 16.7405 29.9923C17.2716 29.9969 17.7827 29.7901 18.1614 29.4174L28.0948 19.6586C28.3798 19.3789 28.6063 19.0452 28.761 18.6769C28.9158 18.3086 28.9956 17.9131 28.996 17.5136V9.01171C28.996 8.48004 28.785 7.97014 28.4094 7.59419C28.0338 7.21823 27.5244 7.00703 26.9933 7.00703H18.4678C18.0731 7.00711 17.6823 7.08506 17.3177 7.23641C16.9531 7.38775 16.6219 7.60954 16.343 7.88909ZM30.2016 21.8056C30.7712 21.2457 31.2236 20.5777 31.5324 19.8408C31.8412 19.1039 32.0001 18.3127 32 17.5136V9.01171C32 7.68252 31.4725 6.40778 30.5336 5.4679C29.5946 4.52802 28.3211 4 26.9933 4H18.4678C17.6786 3.99991 16.897 4.15548 16.1678 4.45783C15.4387 4.76018 14.7761 5.20338 14.2181 5.76212L4.46504 15.5249C3.53218 16.4595 3.00567 17.7249 3.00005 19.046C2.99442 20.3671 3.51013 21.637 4.435 22.5794L13.1867 31.5003C14.1171 32.4484 15.3856 32.9878 16.7132 32.9998C18.0408 33.0118 19.3189 32.4955 20.2662 31.5644L30.2016 21.8056ZM22.3751 10.0902C22.0935 9.80867 21.7117 9.65053 21.3137 9.65053C20.9156 9.65053 20.5339 9.80867 20.2522 10.0902L16.7115 13.6325L16.5352 13.4561C16.2505 13.1905 15.8739 13.0459 15.4848 13.0528C15.0957 13.0597 14.7244 13.2175 14.4492 13.4929C14.174 13.7684 14.0164 14.1401 14.0095 14.5296C14.0026 14.9191 14.1471 15.2961 14.4124 15.5811L14.5866 15.7615L13.8797 16.4691L13.7034 16.2907C13.4217 16.0087 13.0395 15.8502 12.641 15.8502C12.2425 15.8502 11.8604 16.0087 11.5786 16.2907C11.2968 16.5728 11.1385 16.9553 11.1385 17.3542C11.1385 17.5517 11.1774 17.7473 11.2529 17.9298C11.3284 18.1122 11.4391 18.278 11.5786 18.4177L11.7548 18.5941L11.0479 19.3038C10.7826 19.5888 10.6381 19.9658 10.645 20.3553C10.6519 20.7448 10.8095 21.1164 11.0847 21.3919C11.3599 21.6674 11.7311 21.8252 12.1203 21.832C12.5094 21.8389 12.886 21.6943 13.1707 21.4287L13.8797 20.7211L16.0025 22.846C16.141 22.9897 16.3067 23.1043 16.4899 23.1832C16.6731 23.2621 16.8702 23.3037 17.0696 23.3055C17.2691 23.3073 17.4669 23.2694 17.6515 23.1939C17.8361 23.1183 18.0039 23.0068 18.145 22.8657C18.2861 22.7246 18.3977 22.5568 18.4733 22.372C18.5489 22.1873 18.587 21.9893 18.5854 21.7897C18.5837 21.5901 18.5424 21.3927 18.4637 21.2093C18.3851 21.0258 18.2708 20.8598 18.1274 20.7211L16.0045 18.5961L16.7115 17.8865L18.3056 19.4802C19.2037 20.3418 20.4033 20.8169 21.6472 20.8037C22.8911 20.7905 24.0804 20.29 24.96 19.4095C25.8396 18.529 26.3396 17.3385 26.3528 16.0934C26.366 14.8482 25.8914 13.6474 25.0306 12.7484L22.3751 10.0902ZM20.4285 17.3552L18.8363 15.7595L21.3137 13.2817L22.9078 14.8754C23.2366 15.2045 23.4213 15.6509 23.4213 16.1163C23.4213 16.5817 23.2366 17.0281 22.9078 17.3572C22.579 17.6863 22.1331 17.8712 21.6681 17.8712C21.2032 17.8712 20.7572 17.6843 20.4285 17.3552Z" fill="#08005E"/>
</g>
</svg>
