<svg width="25" height="24" viewBox="0 0 25 24" fill="none" xmlns="http://www.w3.org/2000/svg">
<g id="24px / Heart">
<path id="Icon" fill-rule="evenodd" clip-rule="evenodd" d="M4.81357 5.42552C5.65491 4.55014 6.79585 4.05838 7.9855 4.05838C9.17515 4.05838 10.3161 4.55014 11.1574 5.42552L12.472 6.7925L13.7865 5.42552C14.2003 4.97954 14.6954 4.62382 15.2428 4.3791C15.7901 4.13438 16.3788 4.00556 16.9746 4.00018C17.5703 3.99479 18.161 4.11293 18.7124 4.34772C19.2638 4.5825 19.7647 4.92922 20.1859 5.36765C20.6072 5.80607 20.9403 6.32742 21.1659 6.90128C21.3915 7.47514 21.505 8.09001 21.4998 8.71001C21.4947 9.33002 21.3709 9.94274 21.1358 10.5124C20.9006 11.0821 20.5588 11.5974 20.1303 12.0281L12.472 20L4.81357 12.0281C3.97249 11.1525 3.5 9.96498 3.5 8.72682C3.5 7.48865 3.97249 6.30117 4.81357 5.42552V5.42552Z" stroke="#283142" stroke-width="2" stroke-linejoin="round"/>
</g>
</svg>
