<svg width="21" height="20" viewBox="0 0 21 20" fill="none" xmlns="http://www.w3.org/2000/svg">
<path d="M3.78125 15.3481C3.94348 15.7262 4.26911 16.0256 4.68049 16.1432L8.26298 17.1667C8.35993 17.1944 8.46026 17.2085 8.56118 17.2085H12.108C12.2089 17.2085 12.3092 17.1944 12.4061 17.1667L15.9887 16.1431C16.4001 16.0256 16.7257 15.7262 16.8879 15.3482H3.78125V15.3481Z" fill="#C9CBD0"/>
<path d="M10.6442 2.7915H10.0241C9.25482 2.7915 8.62891 3.41739 8.62891 4.18674V4.3143V7.44226C8.62891 8.21158 9.25479 8.8375 10.0241 8.8375H10.6442C11.4135 8.8375 12.0395 8.21161 12.0395 7.44226V4.31427V4.1867C12.0395 3.41739 11.4135 2.7915 10.6442 2.7915Z" fill="#C9CBD0"/>
<path d="M17.0008 10.3876V8.76004C17.0008 6.85635 15.7092 5.21106 13.86 4.75903L12.9701 4.5415V7.44212C12.9701 8.72433 11.927 9.76748 10.6448 9.76748H10.0247C8.74246 9.76748 7.69931 8.72433 7.69931 7.44212V4.5415L6.80948 4.75903C4.96024 5.21106 3.66867 6.85632 3.66867 8.76004V10.3876C2.89932 10.3876 2.27344 11.0135 2.27344 11.7828V13.023C2.27344 13.7923 2.89932 14.4182 3.66867 14.4182H17.0008C17.7701 14.4182 18.396 13.7923 18.396 13.023V11.7828C18.396 11.0135 17.7701 10.3876 17.0008 10.3876Z" fill="#C9CBD0"/>
</svg>
