<svg width="16" height="16" viewBox="0 0 16 16" fill="none" xmlns="http://www.w3.org/2000/svg">
<g id="16px / Home">
<path id="Icon (Stroke)" fill-rule="evenodd" clip-rule="evenodd" d="M8.09032 2.693C8.03835 2.65786 7.96197 2.65786 7.91001 2.693L2.71001 6.20957C2.67475 6.23342 2.66683 6.26141 2.66683 6.27735V12.8588C2.66683 13.0897 2.87365 13.3333 3.20016 13.3333H5.3335V9.4352C5.3335 8.61566 6.02211 8.00774 6.80016 8.00774H9.20016C9.97822 8.00774 10.6668 8.61566 10.6668 9.4352V13.3333H12.8002C13.1267 13.3333 13.3335 13.0897 13.3335 12.8588V6.27735C13.3335 6.26141 13.3256 6.23342 13.2903 6.20957L8.09032 2.693ZM12.8002 14.6666C13.7991 14.6666 14.6668 13.8884 14.6668 12.8588V6.27735C14.6668 5.80076 14.4241 5.36668 14.0372 5.10509L8.83724 1.58852C8.33407 1.24824 7.66625 1.24824 7.16308 1.58852L1.96308 5.10509C1.57627 5.36668 1.3335 5.80076 1.3335 6.27735V12.8588C1.3335 13.8884 2.20119 14.6666 3.20016 14.6666H12.8002ZM9.3335 13.3333V9.4352C9.3335 9.42033 9.32828 9.40111 9.30643 9.38033C9.28399 9.35899 9.24787 9.34107 9.20016 9.34107H6.80016C6.75245 9.34107 6.71634 9.35899 6.6939 9.38033C6.67204 9.40111 6.66683 9.42033 6.66683 9.4352V13.3333H9.3335Z" fill="#283142"/>
</g>
</svg>
