<svg width="21" height="20" viewBox="0 0 21 20" fill="none" xmlns="http://www.w3.org/2000/svg">
<path d="M17.8287 15.0474H12.1698C11.9164 15.0474 11.7109 15.2528 11.7109 15.5062V17.4945C11.7109 17.7479 11.9164 17.9533 12.1698 17.9533H17.8287C18.0821 17.9533 18.2875 17.7478 18.2875 17.4945V15.5062C18.2875 15.2528 18.0821 15.0474 17.8287 15.0474Z" fill="#C9CBD0"/>
<path d="M8.49863 15.0474H2.83969C2.5863 15.0474 2.38086 15.2528 2.38086 15.5062V17.4945C2.38086 17.7478 2.5863 17.9533 2.83969 17.9533H8.49863C8.75204 17.9533 8.95746 17.7478 8.95746 17.4945V15.5062C8.95746 15.2528 8.75208 15.0474 8.49863 15.0474Z" fill="#C9CBD0"/>
<path d="M14.3298 11.2052C14.1507 11.026 13.8601 11.026 13.681 11.2052L12.7633 12.1228C12.5841 12.302 12.5841 12.5925 12.7633 12.7717C12.8529 12.8613 12.9703 12.9061 13.0878 12.9061C13.2052 12.9061 13.3226 12.8613 13.4122 12.7717L14.3298 11.854C14.509 11.6749 14.509 11.3843 14.3298 11.2052Z" fill="#C9CBD0"/>
<path d="M14.3286 13.0401C14.1495 12.861 13.8589 12.861 13.6798 13.0402L13.068 13.6519C12.8888 13.8311 12.8888 14.1216 13.068 14.3008C13.1576 14.3904 13.275 14.4352 13.3924 14.4352C13.5099 14.4352 13.6273 14.3904 13.7169 14.3008L14.3286 13.689C14.5078 13.5099 14.5078 13.2193 14.3286 13.0401Z" fill="#C9CBD0"/>
<path d="M7.90602 12.1228L6.98837 11.2052C6.8092 11.026 6.51867 11.026 6.33947 11.2052C6.16028 11.3843 6.16028 11.6749 6.33947 11.8541L7.25716 12.7717C7.34672 12.8613 7.46415 12.9061 7.58159 12.9061C7.69902 12.9061 7.81645 12.8613 7.90602 12.7717C8.08521 12.5926 8.08521 12.302 7.90602 12.1228Z" fill="#C9CBD0"/>
<path d="M7.60011 13.6519L6.98834 13.0401C6.80918 12.861 6.51864 12.861 6.33945 13.0401C6.16028 13.2193 6.16028 13.5099 6.33948 13.689L6.95125 14.3008C7.04081 14.3904 7.15824 14.4352 7.27568 14.4352C7.39311 14.4352 7.51054 14.3904 7.60011 14.3008C7.7793 14.1216 7.7793 13.8311 7.60011 13.6519Z" fill="#C9CBD0"/>
<path d="M8.65234 8.31738V13.0586C8.65234 13.3121 8.85779 13.5175 9.11117 13.5175H9.87588V17.494C9.87588 17.7474 10.0813 17.9529 10.3347 17.9529C10.5881 17.9529 10.7935 17.7474 10.7935 17.494V13.5175H11.5582C11.8116 13.5175 12.0171 13.312 12.0171 13.0586V8.31738H8.65234Z" fill="#C9CBD0"/>
<path d="M17.8282 2.04688H2.83969C2.5863 2.04688 2.38086 2.25232 2.38086 2.5057V3.57633C2.38086 4.33532 2.99834 4.95284 3.75737 4.95284H7.42804V6.94111C7.42804 7.19452 7.63348 7.39994 7.88686 7.39994H8.65157H12.0164H12.7811C13.0345 7.39994 13.2399 7.19449 13.2399 6.94111V4.95284H16.9106C17.6696 4.95284 18.2871 4.33535 18.2871 3.57633V2.5057C18.2871 2.25232 18.0816 2.04688 17.8282 2.04688Z" fill="#C9CBD0"/>
</svg>
