<svg width="37" height="37" viewBox="0 0 37 37" fill="none" xmlns="http://www.w3.org/2000/svg">
<g id="Xnix/Line/">
<g id="Vector">
<path id="Vector-5" fill-rule="evenodd" clip-rule="evenodd" d="M18.5013 16.1L6.50195 11.3002L12.5016 8.90036L18.5013 6.50049L30.5006 11.3002L24.501 13.7001L18.5013 16.1Z" stroke="#00521C" stroke-width="2.57129" stroke-linecap="round" stroke-linejoin="round"/>
<path id="Vector-6" d="M18.0238 31.6928C18.6831 31.9565 19.4313 31.6358 19.695 30.9765C19.9587 30.3173 19.638 29.5691 18.9788 29.3054L18.0238 31.6928ZM6.50195 25.6993H5.21631C5.21631 26.225 5.53637 26.6978 6.02448 26.893L6.50195 25.6993ZM7.7876 11.3001C7.7876 10.5901 7.21199 10.0145 6.50195 10.0145C5.79191 10.0145 5.21631 10.5901 5.21631 11.3001H7.7876ZM18.0242 29.3054C17.3649 29.5691 17.0443 30.3173 17.308 30.9765C17.5717 31.6358 18.3199 31.9565 18.9791 31.6928L18.0242 29.3054ZM30.501 25.6993L30.9785 26.893C31.4666 26.6978 31.7867 26.225 31.7867 25.6993H30.501ZM31.7867 11.3001C31.7867 10.5901 31.2111 10.0145 30.501 10.0145C29.791 10.0145 29.2154 10.5901 29.2154 11.3001H31.7867ZM17.2153 30.4993C17.2153 31.2094 17.7909 31.785 18.5009 31.785C19.211 31.785 19.7866 31.2094 19.7866 30.4993H17.2153ZM19.7866 16.1001C19.7866 15.3901 19.211 14.8145 18.5009 14.8145C17.7909 14.8145 17.2153 15.3901 17.2153 16.1001H19.7866ZM12.9787 7.7067C12.3195 7.443 11.5713 7.76366 11.3076 8.42291C11.0439 9.08217 11.3645 9.83038 12.0238 10.0941L12.9787 7.7067ZM24.5006 13.7001H25.7863C25.7863 13.1744 25.4662 12.7017 24.9781 12.5064L24.5006 13.7001ZM23.215 17.6428C23.215 18.3528 23.7906 18.9284 24.5006 18.9284C25.2107 18.9284 25.7863 18.3528 25.7863 17.6428H23.215ZM18.9788 29.3054L6.97943 24.5056L6.02448 26.893L18.0238 31.6928L18.9788 29.3054ZM7.7876 25.6993V11.3001H5.21631V25.6993H7.7876ZM18.9791 31.6928L30.9785 26.893L30.0235 24.5056L18.0242 29.3054L18.9791 31.6928ZM31.7867 25.6993V11.3001H29.2154V25.6993H31.7867ZM19.7866 30.4993V16.1001H17.2153V30.4993H19.7866ZM12.0238 10.0941L24.0231 14.8938L24.9781 12.5064L12.9787 7.7067L12.0238 10.0941ZM23.215 13.7001V17.6428H25.7863V13.7001H23.215Z" fill="#00521C"/>
</g>
</g>
</svg>
