<svg width="155" height="154" viewBox="0 0 155 154" fill="none" xmlns="http://www.w3.org/2000/svg">
<g opacity="0.02">
<path d="M0.00620498 68.6377C-0.114645 69.8915 1.56217 70.4001 2.21173 69.3225C14.9161 48.0429 65.7133 23.2737 80.6433 11.5865C85.9003 8.20269 83.5387 0.0553895 77.2545 0.0151062C76.7258 0 76.1719 0 75.6381 0C37.5654 0 3.66695 31.3052 0.00620498 68.6377Z" fill="white"/>
<path d="M76.8656 153.863C115.588 154.78 150.408 123.122 154.134 85.2408C154.25 83.987 152.578 83.4784 151.928 84.556C139.224 105.836 88.4269 130.605 73.4969 142.292C68.2147 145.701 70.6015 153.823 76.8656 153.863Z" fill="white"/>
<path d="M92.1639 3.42235C92.3653 4.36397 92.4409 5.34084 92.4409 6.358C92.4409 11.2121 89.5657 15.9907 85.9251 18.8458L60.4962 35.2562L27.3632 56.6366L22.8364 59.5722C14.1548 65.9287 8.12397 75.2652 5.89954 85.7927C3.67511 96.3202 5.41345 107.298 10.7816 116.623C11.547 117.892 12.3577 119.166 13.2238 120.38C17.0836 125.965 21.6596 131.02 26.8345 135.416C27.8768 136.322 29.4529 135.3 29.0803 133.97C29.0803 133.95 29.0803 133.95 29.0602 133.93C27.1656 127.116 27.2477 119.903 29.2968 113.134C31.8543 104.701 37.2823 97.4292 44.6397 92.5794L58.8396 83.4149L83.5584 67.4627L105.342 53.3837C109.181 50.7244 112.308 47.1622 114.448 43.0106C116.587 38.8589 117.674 34.2451 117.612 29.5749C117.55 24.9048 116.341 20.3215 114.091 16.2283C111.842 12.1351 108.621 8.65737 104.712 6.10119C101.371 4.01245 97.6709 2.56123 93.8004 1.82109C93.7047 1.79591 93.6242 1.79591 93.5235 1.79591C93.319 1.78804 93.1153 1.82717 92.9283 1.91027C92.7412 1.99337 92.5757 2.11825 92.4444 2.2753C92.3131 2.43236 92.2195 2.61741 92.1709 2.81626C92.1223 3.0151 92.1199 3.22244 92.1639 3.42235Z" fill="white"/>
<path d="M49.0043 147.516C49.1856 147.631 49.3416 147.752 49.5178 147.848C53.6368 150.492 57.927 151.645 60.4296 152.133C60.6518 152.177 60.8816 152.166 61.0984 152.1C61.3152 152.034 61.5124 151.916 61.6723 151.756C61.8323 151.595 61.9501 151.398 62.0153 151.181C62.0805 150.964 62.091 150.734 62.046 150.512C61.8539 149.545 61.761 148.561 61.769 147.576C61.769 142.717 64.6443 137.923 68.2899 135.063L93.7187 118.658L126.847 97.2773L131.399 94.3417C140.078 87.9838 146.108 78.6474 148.332 68.1205C150.556 57.5936 148.819 46.6162 143.453 37.2905C142.68 36.0127 141.865 34.7599 141.011 33.534C137.149 27.9563 132.581 22.9023 127.421 18.4983C127.193 18.304 126.908 18.1882 126.609 18.1682C126.31 18.1481 126.013 18.2248 125.761 18.3869C125.509 18.549 125.316 18.7879 125.211 19.0682C125.105 19.3486 125.093 19.6555 125.175 19.9435C126.624 25.1282 126.933 30.565 126.081 35.8805C125.809 37.5404 125.434 39.1818 124.958 40.7951C122.397 49.2275 116.968 56.4988 109.61 61.3497L95.4106 70.5141L70.6918 86.4713L48.9085 100.53C45.1231 103.156 42.0298 106.658 39.8928 110.739C37.7558 114.82 36.6388 119.358 36.6373 123.965C36.6281 128.6 37.7497 133.168 39.9047 137.272C42.0597 141.375 45.1832 144.892 49.0043 147.516Z" fill="white"/>
</g>
</svg>
