<svg width="20" height="21" viewBox="0 0 20 21" fill="none" xmlns="http://www.w3.org/2000/svg">
<g id="mdi:eye" opacity="0.5">
<path id="Vector" d="M10.0007 8C9.33761 8 8.70173 8.26339 8.23288 8.73223C7.76404 9.20107 7.50065 9.83696 7.50065 10.5C7.50065 11.163 7.76404 11.7989 8.23288 12.2678C8.70173 12.7366 9.33761 13 10.0007 13C10.6637 13 11.2996 12.7366 11.7684 12.2678C12.2373 11.7989 12.5007 11.163 12.5007 10.5C12.5007 9.83696 12.2373 9.20107 11.7684 8.73223C11.2996 8.26339 10.6637 8 10.0007 8ZM10.0007 14.6667C8.89558 14.6667 7.83577 14.2277 7.05437 13.4463C6.27297 12.6649 5.83398 11.6051 5.83398 10.5C5.83398 9.39493 6.27297 8.33512 7.05437 7.55372C7.83577 6.77232 8.89558 6.33333 10.0007 6.33333C11.1057 6.33333 12.1655 6.77232 12.9469 7.55372C13.7283 8.33512 14.1673 9.39493 14.1673 10.5C14.1673 11.6051 13.7283 12.6649 12.9469 13.4463C12.1655 14.2277 11.1057 14.6667 10.0007 14.6667ZM10.0007 4.25C5.83398 4.25 2.27565 6.84167 0.833984 10.5C2.27565 14.1583 5.83398 16.75 10.0007 16.75C14.1673 16.75 17.7257 14.1583 19.1673 10.5C17.7257 6.84167 14.1673 4.25 10.0007 4.25Z" fill="white"/>
</g>
</svg>
