<svg width="24" height="24" viewBox="0 0 24 24" fill="none" xmlns="http://www.w3.org/2000/svg">
<g id="24px / Password Show">
<path id="Union" fill-rule="evenodd" clip-rule="evenodd" d="M12.9177 6.29978L12.9177 2.5H11.0841V6.29978H12.9177ZM19.9304 8.19365L21.764 5.02716L20.1917 4.04968L18.3582 7.21616L19.9304 8.19365ZM2.23813 5.02716L4.07166 8.19365L5.6439 7.21616L3.81037 4.04968L2.23813 5.02716ZM3.05236 15.1668C5.0705 17.8484 8.31962 19.6001 11.9997 19.6001C15.6802 19.6001 18.9295 17.848 20.9476 15.1661C19.6811 13.4833 17.9298 12.1666 15.8914 11.4193C16.1403 11.9815 16.2791 12.607 16.2791 13.266C16.2791 15.7144 14.3637 17.6991 12.0009 17.6991C9.63811 17.6991 7.72268 15.7144 7.72268 13.266C7.72268 12.6068 7.86156 11.9811 8.11066 11.4188C6.07132 12.1661 4.31923 13.4833 3.05236 15.1668ZM22.8392 14.6286C20.522 11.1294 16.525 8.8331 12.0007 8.83296H12.0003C7.47542 8.83296 3.4779 11.1297 1.1608 14.6295C0.946385 14.9534 0.946403 15.3805 1.16084 15.7044C3.47804 19.2036 7.47526 21.5 11.9997 21.5C16.5246 21.5 20.5221 19.2032 22.8392 15.7035C23.0536 15.3796 23.0536 14.9524 22.8392 14.6286ZM12.0009 15.7992C13.3511 15.7992 14.4456 14.6651 14.4456 13.266C14.4456 11.867 13.3511 10.7329 12.0009 10.7329C10.6507 10.7329 9.5562 11.867 9.5562 13.266C9.5562 14.6651 10.6507 15.7992 12.0009 15.7992Z" fill="#9398A0"/>
</g>
</svg>
