<svg width="24" height="24" viewBox="0 0 24 24" fill="none" xmlns="http://www.w3.org/2000/svg">
    <path fill-rule="evenodd" clip-rule="evenodd" d="M8.40961 3.94109C7.73794 3.44596 7.28563 3.33417 7.04293 3.38154C6.04168 3.57694 5.44816 3.96671 4.64404 4.77082C3.54642 5.86842 3.01385 6.68799 3.24581 7.93061C3.51286 9.36128 4.81757 11.5448 8.41358 15.1409C12.0094 18.7366 14.2061 20.0551 15.6447 20.3277C16.3115 20.4541 16.8192 20.3553 17.2748 20.1309C17.7619 19.891 18.2309 19.4872 18.7688 18.9258C19.2459 18.4279 19.5354 18.0804 19.7379 17.7385C19.9309 17.4128 20.0678 17.0527 20.1734 16.5118C20.2208 16.2691 20.1091 15.8168 19.6138 15.145C19.152 14.5185 18.5004 13.8963 17.898 13.3884C17.5005 13.0532 16.8855 13.0318 16.3887 13.4037L14.8703 14.5404C13.5008 15.5656 11.5871 15.4188 10.3788 14.2104L9.344 13.1757C8.13569 11.9674 7.98884 10.0537 9.01407 8.68411L10.1507 7.16583C10.5226 6.66902 10.5012 6.05402 10.166 5.65651C9.65813 5.05425 9.036 4.40283 8.40961 3.94109ZM9.59634 2.33122C10.4058 2.9279 11.1448 3.71478 11.6949 4.3672C12.6978 5.55642 12.616 7.20992 11.7517 8.3644L10.6152 9.88268C10.1917 10.4483 10.2464 11.2497 10.7582 11.7615L11.793 12.7962C12.3048 13.308 13.1061 13.3627 13.6718 12.9393L15.1901 11.8027C16.3446 10.9385 17.998 10.8566 19.1872 11.8593C19.8398 12.4095 20.6268 13.1486 21.2237 13.9582C21.7871 14.7225 22.354 15.7809 22.1363 16.8953C21.9966 17.6108 21.7913 18.1965 21.4586 18.758C21.1355 19.3034 20.7157 19.7848 20.2129 20.3095C19.6302 20.9176 18.966 21.5274 18.1585 21.9251C17.3195 22.3383 16.3714 22.5011 15.2723 22.2928C13.1793 21.8961 10.6044 20.1601 6.99937 16.5551C3.39455 12.9502 1.66968 10.3864 1.27976 8.2976C0.854751 6.02071 2.03783 4.54859 3.22983 3.3566C4.21442 2.37202 5.14803 1.71361 6.65985 1.41857C7.77398 1.20114 8.83219 1.76792 9.59634 2.33122Z" fill="#283142"/>
</svg>