<svg width="21" height="20" viewBox="0 0 21 20" fill="none" xmlns="http://www.w3.org/2000/svg">
<path d="M15.9966 10.7837H5.33493C4.55686 10.7837 3.92383 11.4167 3.92383 12.1948V13.4491C3.92383 14.2272 4.55683 14.8602 5.33493 14.8602H15.9965C16.7746 14.8602 17.4076 14.2272 17.4076 13.4491V12.1948C17.4076 11.4167 16.7746 10.7837 15.9966 10.7837Z" fill="#C9CBD0"/>
<path d="M15.9966 5.13965H5.33493C4.55686 5.13965 3.92383 5.77265 3.92383 6.55075V7.80507C3.92383 8.58314 4.55683 9.21618 5.33493 9.21618H15.9965C16.7746 9.21618 17.4076 8.58317 17.4076 7.80507V6.55075C17.4076 5.77265 16.7746 5.13965 15.9966 5.13965Z" fill="#C9CBD0"/>
<path d="M5.43945 15.8013L5.66892 17.006C5.79554 17.6707 6.37851 18.1531 7.05512 18.1531H10.1964V15.8013H5.43945Z" fill="#C9CBD0"/>
<path d="M11.1367 15.8013V18.1531H14.278C14.9546 18.1531 15.5376 17.6707 15.6642 17.006L15.8936 15.8013H11.1367Z" fill="#C9CBD0"/>
<path d="M15.6642 2.99422C15.5376 2.32956 14.9546 1.84717 14.278 1.84717H11.1367V4.19899H15.8936L15.6642 2.99422Z" fill="#C9CBD0"/>
<path d="M7.05512 1.84717C6.37851 1.84717 5.79554 2.32956 5.66892 2.99422L5.43945 4.19899H10.1964V1.84717H7.05512Z" fill="#C9CBD0"/>
</svg>
