<svg width="24" height="24" viewBox="0 0 24 24" fill="none" xmlns="http://www.w3.org/2000/svg">
<g id="24px / Rub">
<path id="Icon" d="M9.32766 16.8004V7.20039H13.9095C14.5171 7.20039 15.0998 7.41713 15.5294 7.80292C15.959 8.18871 16.2004 8.71195 16.2004 9.25754C16.2004 9.80312 15.959 10.3264 15.5294 10.7122C15.0998 11.0979 14.5171 11.3147 13.9095 11.3147H7.80039M13.9095 14.0575H7.80039M21.6004 12.0004C21.6004 17.3023 17.3023 21.6004 12.0004 21.6004C6.69846 21.6004 2.40039 17.3023 2.40039 12.0004C2.40039 6.69846 6.69846 2.40039 12.0004 2.40039C17.3023 2.40039 21.6004 6.69846 21.6004 12.0004Z" stroke="#283142" stroke-width="2" stroke-linecap="round" stroke-linejoin="round"/>
</g>
</svg>
