<svg width="20" height="20" viewBox="0 0 20 20" fill="none" xmlns="http://www.w3.org/2000/svg">
<path d="M17.828 7.7883C17.7224 7.60545 17.5241 7.49525 17.3143 7.49998L15.7874 7.53701C15.4817 7.16658 15.1413 6.82619 14.7709 6.52057L14.8079 4.99361C14.8131 4.78256 14.7025 4.58557 14.5197 4.47998C14.3368 4.37439 14.1109 4.37713 13.9307 4.48713L12.629 5.28135C12.1786 5.11283 11.7127 4.98822 11.2376 4.90932L10.5069 3.56971C10.4059 3.38439 10.2116 3.26904 10.0005 3.26904C9.78938 3.26904 9.59513 3.38439 9.49407 3.56971L8.76333 4.90932C8.28825 4.98826 7.82227 5.11287 7.372 5.28135L6.07024 4.48713C5.89001 4.37717 5.66407 4.37443 5.4813 4.47998C5.29845 4.58557 5.18786 4.78256 5.19302 4.99361L5.23005 6.52057C4.85962 6.82623 4.51927 7.16662 4.2136 7.53701L2.68665 7.49998C2.47528 7.49529 2.27856 7.60549 2.17302 7.7883C2.06743 7.97111 2.07016 8.19705 2.18016 8.37725L2.97438 9.67896C2.8647 9.97217 2.77391 10.2721 2.70192 10.5767H5.1052C5.81958 8.56213 7.74407 7.11521 10.0005 7.11521C12.257 7.11521 14.1815 8.56213 14.8958 10.5767H17.2991C17.2271 10.2721 17.1363 9.97217 17.0266 9.67896L17.8209 8.37725C17.9308 8.19701 17.9336 7.97111 17.828 7.7883Z" fill="#C9CBD0"/>
<path d="M9.99981 8.26904C8.39207 8.26904 7.00094 9.21354 6.35156 10.5767H7.69367C8.22047 9.87658 9.05809 9.42291 9.99981 9.42291C10.9415 9.42291 11.7791 9.87662 12.3059 10.5767H13.648C12.9987 9.21357 11.6075 8.26904 9.99981 8.26904Z" fill="#C9CBD0"/>
<path d="M18.5071 11.7477C18.4993 11.7466 18.4916 11.7457 18.4838 11.7447C18.4568 11.7413 18.4295 11.7386 18.4021 11.7365C18.393 11.7358 18.3838 11.735 18.3746 11.7345C18.3397 11.7324 18.3046 11.731 18.2692 11.731H1.73078C1.69535 11.731 1.66027 11.7323 1.62539 11.7345C1.61621 11.7351 1.60703 11.7358 1.59789 11.7365C1.57047 11.7386 1.54324 11.7413 1.51621 11.7447C1.50844 11.7457 1.50066 11.7466 1.49293 11.7477C0.650781 11.864 0 12.5881 0 13.4617V15.0002C0 15.9545 0.776406 16.731 1.73078 16.731H18.2693C19.2236 16.731 20 15.9545 20 15.0002V13.4617C20 12.5881 19.3492 11.864 18.5071 11.7477Z" fill="#C9CBD0"/>
</svg>
