<svg width="24" height="24" viewBox="0 0 24 24" fill="none" xmlns="http://www.w3.org/2000/svg">
<g id="24px / Search">
<path id="Icon (Stroke)" fill-rule="evenodd" clip-rule="evenodd" d="M11.441 4.59754C7.66201 4.59754 4.59852 7.66103 4.59852 11.44C4.59852 15.219 7.66201 18.2825 11.441 18.2825C13.3044 18.2825 14.9938 17.5377 16.2278 16.3295C16.2293 16.328 16.2308 16.3265 16.2323 16.325C17.4982 15.0833 18.2835 13.3534 18.2835 11.44C18.2835 7.66103 15.22 4.59754 11.441 4.59754ZM18.3153 16.9944C19.5431 15.4767 20.2785 13.5442 20.2785 11.44C20.2785 6.55922 16.3218 2.60254 11.441 2.60254C6.5602 2.60254 2.60352 6.55922 2.60352 11.44C2.60352 16.3209 6.5602 20.2775 11.441 20.2775C13.4987 20.2775 15.392 19.5743 16.894 18.3951L19.7075 21.117C20.1034 21.5 20.7349 21.4895 21.1179 21.0936C21.501 20.6977 21.4905 20.0662 21.0946 19.6831L18.3153 16.9944Z" fill="#9398A0"/>
</g>
</svg>
