<svg width="25" height="24" viewBox="0 0 25 24" fill="none" xmlns="http://www.w3.org/2000/svg">
<g id="settings">
<g id="Icon">
<path fill-rule="evenodd" clip-rule="evenodd" d="M14.0093 4.31627C13.5818 2.56124 11.0842 2.56124 10.6567 4.31627C10.5929 4.57999 10.4677 4.82492 10.2913 5.03112C10.115 5.23732 9.89239 5.39897 9.64175 5.50291C9.39111 5.60684 9.11946 5.65014 8.84893 5.62927C8.57839 5.60839 8.31661 5.52394 8.08488 5.38279C6.54133 4.44227 4.77502 6.20855 5.71555 7.75207C6.32307 8.74884 5.78418 10.0494 4.65014 10.325C2.89396 10.7514 2.89396 13.25 4.65014 13.6753C4.91394 13.7392 5.15891 13.8645 5.36512 14.041C5.57132 14.2175 5.73292 14.4402 5.83676 14.691C5.9406 14.9418 5.98375 15.2135 5.96269 15.4841C5.94162 15.7547 5.85695 16.0165 5.71555 16.2482C4.77502 17.7917 6.54133 19.558 8.08488 18.6175C8.31656 18.4761 8.57837 18.3914 8.84898 18.3704C9.11959 18.3493 9.39135 18.3924 9.64213 18.4963C9.8929 18.6001 10.1156 18.7617 10.2921 18.9679C10.4686 19.1741 10.5939 19.4191 10.6578 19.6829C11.0842 21.439 13.5829 21.439 14.0082 19.6829C14.0723 19.4192 14.1977 19.1744 14.3743 18.9684C14.5508 18.7623 14.7735 18.6008 15.0242 18.497C15.2749 18.3932 15.5465 18.35 15.8171 18.3709C16.0876 18.3919 16.3494 18.4764 16.5811 18.6175C18.1247 19.558 19.891 17.7917 18.9505 16.2482C18.8093 16.0165 18.7248 15.7547 18.7039 15.4842C18.683 15.2136 18.7262 14.942 18.83 14.6913C18.9338 14.4406 19.0953 14.2179 19.3013 14.0414C19.5074 13.8648 19.7522 13.7394 20.0159 13.6753C21.7721 13.2489 21.7721 10.7502 20.0159 10.325C19.7521 10.2611 19.5071 10.1358 19.3009 9.95928C19.0947 9.78278 18.9331 9.56007 18.8293 9.3093C18.7254 9.05853 18.6823 8.78677 18.7033 8.51617C18.7244 8.24556 18.8091 7.98376 18.9505 7.75207C19.891 6.20855 18.1247 4.44227 16.5811 5.38279C16.3495 5.52418 16.0876 5.60886 15.817 5.62992C15.5464 5.65098 15.2747 5.60784 15.0239 5.504C14.7731 5.40016 14.5504 5.23856 14.3739 5.03236C14.1974 4.82616 14.0721 4.58119 14.0082 4.3174L14.0093 4.31627Z" stroke="#004A4F" stroke-width="2"/>
<path d="M14.333 12C14.333 13.1046 13.4376 14 12.333 14C11.2284 14 10.333 13.1046 10.333 12C10.333 10.8954 11.2284 10 12.333 10C13.4376 10 14.333 10.8954 14.333 12Z" stroke="#004A4F" stroke-width="2"/>
</g>
</g>
</svg>
