<svg width="20" height="20" viewBox="0 0 20 20" fill="none" xmlns="http://www.w3.org/2000/svg">
<g id="24px/TG">
<path id="Vector" fill-rule="evenodd" clip-rule="evenodd" d="M2.75447 9.07292C7.00469 7.19128 9.83884 5.95079 11.2569 5.35144C15.3058 3.64019 16.1471 3.34293 16.6955 3.33311C16.8161 3.33095 17.0858 3.36133 17.2604 3.50535C17.4079 3.62697 17.4485 3.79125 17.4679 3.90656C17.4874 4.02186 17.5115 4.28453 17.4923 4.48977C17.2729 6.83234 16.3235 12.5171 15.8405 15.1409C15.6362 16.2511 15.2337 16.6233 14.8442 16.6597C13.9975 16.7389 13.3546 16.0912 12.5345 15.545C11.2514 14.6902 10.5264 14.1582 9.28089 13.3241C7.84144 12.3602 8.77457 11.8305 9.59491 10.9647C9.8096 10.7381 13.54 7.29024 13.6122 6.97746C13.6212 6.93835 13.6296 6.79253 13.5444 6.71554C13.4591 6.63855 13.3333 6.66487 13.2425 6.68581C13.1138 6.7155 11.0639 8.09228 7.09278 10.8162C6.51092 11.2222 5.98389 11.42 5.51169 11.4096C4.99113 11.3982 3.98978 11.1105 3.24537 10.8646C2.33233 10.563 1.60666 10.4036 1.66985 9.89142C1.70276 9.62464 2.06431 9.35181 2.75447 9.07292Z" fill="white"/>
</g>
</svg>
