<svg width="25" height="24" viewBox="0 0 25 24" fill="none" xmlns="http://www.w3.org/2000/svg">
<g id="24px / Truck">
<path id="Icon" d="M5.81024 17.0283H4.89595C3.88606 17.0283 3.06738 16.2096 3.06738 15.1997V6.97115C3.06738 5.96126 3.88606 5.14258 4.89595 5.14258H13.1245C14.1344 5.14258 14.9531 5.96126 14.9531 6.97115V15.1997C14.9531 16.2096 14.1344 17.0283 13.1245 17.0283H12.2102M16.3245 17.0283H15.8674C15.3624 17.0283 14.9531 16.619 14.9531 16.114V8.34258C14.9531 7.83763 15.3624 7.42829 15.8674 7.42829H18.1708C18.4486 7.42829 18.7112 7.55455 18.8847 7.77143L22.067 11.7493C22.1967 11.9114 22.2674 12.1128 22.2674 12.3204V16.114C22.2674 16.619 21.858 17.0283 21.3531 17.0283M11.296 16.5711C11.296 17.8335 10.2726 18.8569 9.01024 18.8569C7.74787 18.8569 6.72452 17.8335 6.72452 16.5711C6.72452 15.3088 7.74787 14.2854 9.01024 14.2854C10.2726 14.2854 11.296 15.3088 11.296 16.5711ZM20.896 16.5711C20.896 17.8335 19.8726 18.8569 18.6102 18.8569C17.3479 18.8569 16.3245 17.8335 16.3245 16.5711C16.3245 15.3088 17.3479 14.2854 18.6102 14.2854C19.8726 14.2854 20.896 15.3088 20.896 16.5711Z" stroke="#674800" stroke-width="2" stroke-linecap="round"/>
</g>
</svg>
