<svg width="36" height="36" viewBox="0 0 36 36" fill="none" xmlns="http://www.w3.org/2000/svg">
<g id="Xnix/Line/Truck_Loading">
<g id="Vector">
<path id="Vector-15" fill-rule="evenodd" clip-rule="evenodd" d="M13.377 25.4414C13.3989 26.705 12.6546 27.8564 11.4935 28.3552C10.3323 28.854 8.98481 28.6012 8.08341 27.7155C7.18201 26.8297 6.90567 25.4868 7.38409 24.3171C7.86251 23.1474 9.00071 22.3831 10.2645 22.3829C11.0828 22.3757 11.8705 22.6939 12.4542 23.2675C13.0379 23.8411 13.3698 24.6231 13.377 25.4414Z" stroke="#004A4F" stroke-width="2.25" stroke-linecap="round" stroke-linejoin="round"/>
<path id="Vector-16" fill-rule="evenodd" clip-rule="evenodd" d="M28.1992 25.4414C28.2212 26.705 27.4769 27.8564 26.3157 28.3552C25.1546 28.854 23.8071 28.6012 22.9057 27.7155C22.0043 26.8297 21.7279 25.4868 22.2064 24.3171C22.6848 23.1474 23.823 22.3831 25.0867 22.3829C25.9051 22.3757 26.6927 22.6939 27.2765 23.2675C27.8602 23.8411 28.1921 24.6231 28.1992 25.4414V25.4414Z" stroke="#004A4F" stroke-width="2.25" stroke-linecap="round" stroke-linejoin="round"/>
<path id="Vector-17" fill-rule="evenodd" clip-rule="evenodd" d="M4.5 13.1279V20.0579H13.737V13.1279H4.5Z" stroke="#004A4F" stroke-width="2.25" stroke-linecap="round" stroke-linejoin="round"/>
<path id="Vector-18" d="M21.615 26.5665C22.2363 26.5665 22.74 26.0628 22.74 25.4415C22.74 24.8202 22.2363 24.3165 21.615 24.3165V26.5665ZM13.377 24.3165C12.7557 24.3165 12.252 24.8202 12.252 25.4415C12.252 26.0628 12.7557 26.5665 13.377 26.5665V24.3165ZM21.6139 24.3166C20.9926 24.3166 20.4889 24.8203 20.4889 25.4416C20.4889 26.0629 20.9926 26.5666 21.6139 26.5666V24.3166ZM21.9799 26.5666C22.6012 26.5666 23.1049 26.0629 23.1049 25.4416C23.1049 24.8203 22.6012 24.3166 21.9799 24.3166V26.5666ZM20.49 25.4415C20.49 26.0628 20.9937 26.5665 21.615 26.5665C22.2363 26.5665 22.74 26.0628 22.74 25.4415H20.49ZM22.74 20.058C22.74 19.4367 22.2363 18.933 21.615 18.933C20.9937 18.933 20.49 19.4367 20.49 20.058H22.74ZM28.2012 24.3165C27.5799 24.3165 27.0762 24.8202 27.0762 25.4415C27.0762 26.0628 27.5799 26.5665 28.2012 26.5665V24.3165ZM31.5012 22.1415H32.6262C32.6262 22.0728 32.6199 22.0041 32.6073 21.9365L31.5012 22.1415ZM31.8453 17.825C31.7321 17.2141 31.1451 16.8106 30.5342 16.9239C29.9232 17.0371 29.5198 17.6241 29.633 18.235L31.8453 17.825ZM21.615 10.317C20.9937 10.317 20.49 10.8207 20.49 11.442C20.49 12.0633 20.9937 12.567 21.615 12.567V10.317ZM26.832 11.442V12.567C26.8482 12.567 26.8644 12.5666 26.8806 12.5659L26.832 11.442ZM29.967 13.8315L28.8704 14.0825C28.8739 14.098 28.8778 14.1134 28.882 14.1287L29.967 13.8315ZM30.126 14.7315L29.0048 14.8241C29.0079 14.8617 29.0129 14.8991 29.0198 14.9362L30.126 14.7315ZM29.6303 18.2362C29.7433 18.8471 30.3302 19.2508 30.9412 19.1377C31.5521 19.0247 31.9558 18.4378 31.8427 17.8268L29.6303 18.2362ZM22.74 11.442C22.74 10.8207 22.2363 10.317 21.615 10.317C20.9937 10.317 20.49 10.8207 20.49 11.442H22.74ZM20.49 18.03C20.49 18.6513 20.9937 19.155 21.615 19.155C22.2363 19.155 22.74 18.6513 22.74 18.03H20.49ZM20.49 11.442C20.49 12.0633 20.9937 12.567 21.615 12.567C22.2363 12.567 22.74 12.0633 22.74 11.442H20.49ZM21.615 7.5H22.74C22.74 6.87868 22.2363 6.375 21.615 6.375V7.5ZM10.1835 7.5V6.375C9.56218 6.375 9.0585 6.87868 9.0585 7.5H10.1835ZM9.0585 13.128C9.0585 13.7493 9.56218 14.253 10.1835 14.253C10.8048 14.253 11.3085 13.7493 11.3085 13.128H9.0585ZM22.74 18.03C22.74 17.4087 22.2363 16.905 21.615 16.905C20.9937 16.905 20.49 17.4087 20.49 18.03H22.74ZM20.49 20.058C20.49 20.6793 20.9937 21.183 21.615 21.183C22.2363 21.183 22.74 20.6793 22.74 20.058H20.49ZM21.615 16.905C20.9937 16.905 20.49 17.4087 20.49 18.03C20.49 18.6513 20.9937 19.155 21.615 19.155V16.905ZM30.738 19.155C31.3593 19.155 31.863 18.6513 31.863 18.03C31.863 17.4087 31.3593 16.905 30.738 16.905V19.155ZM7.1535 26.5665C7.77482 26.5665 8.2785 26.0628 8.2785 25.4415C8.2785 24.8202 7.77482 24.3165 7.1535 24.3165V26.5665ZM6.0555 25.4415V24.3165C6.05034 24.3165 6.04518 24.3165 6.04002 24.3166L6.0555 25.4415ZM4.96373 25.0064L5.74866 24.2005H5.74866L4.96373 25.0064ZM4.5 23.9265H3.375C3.375 23.9312 3.37503 23.936 3.37509 23.9407L4.5 23.9265ZM4.5 20.058V18.933C3.87868 18.933 3.375 19.4367 3.375 20.058H4.5ZM21.615 21.183C22.2363 21.183 22.74 20.6793 22.74 20.058C22.74 19.4367 22.2363 18.933 21.615 18.933V21.183ZM21.615 24.3165H13.377V26.5665H21.615V24.3165ZM21.6139 26.5666H21.9799V24.3166H21.6139V26.5666ZM22.74 25.4415V20.058H20.49V25.4415H22.74ZM28.2012 26.5665C30.645 26.5665 32.6262 24.5854 32.6262 22.1415H30.3762C30.3762 23.3427 29.4024 24.3165 28.2012 24.3165V26.5665ZM32.6073 21.9365L31.8453 17.825L29.633 18.235L30.395 22.3465L32.6073 21.9365ZM21.615 12.567H26.832V10.317H21.615V12.567ZM26.8806 12.5659C27.8229 12.5252 28.6599 13.1631 28.8704 14.0825L31.0636 13.5805C30.6109 11.6027 28.8104 10.2303 26.7834 10.3181L26.8806 12.5659ZM28.882 14.1287C28.9443 14.3562 28.9854 14.589 29.0048 14.8241L31.2472 14.6389C31.2163 14.2655 31.151 13.8957 31.052 13.5343L28.882 14.1287ZM29.0198 14.9362L29.6303 18.2362L31.8427 17.8268L31.2322 14.5268L29.0198 14.9362ZM20.49 11.442V18.03H22.74V11.442H20.49ZM22.74 11.442V7.5H20.49V11.442H22.74ZM21.615 6.375H10.1835V8.625H21.615V6.375ZM9.0585 7.5V13.128H11.3085V7.5H9.0585ZM20.49 18.03V20.058H22.74V18.03H20.49ZM21.615 19.155H30.738V16.905H21.615V19.155ZM7.1535 24.3165H6.0555V26.5665H7.1535V24.3165ZM6.04002 24.3166C5.93134 24.3181 5.82652 24.2763 5.74866 24.2005L4.17879 25.8123C4.68446 26.3048 5.36518 26.5761 6.07098 26.5664L6.04002 24.3166ZM5.74866 24.2005C5.6708 24.1247 5.62628 24.021 5.62491 23.9123L3.37509 23.9407C3.38399 24.6465 3.67313 25.3198 4.17879 25.8123L5.74866 24.2005ZM5.625 23.9265V20.058H3.375V23.9265H5.625ZM4.5 21.183H21.615V18.933H4.5V21.183Z" fill="#004A4F"/>
</g>
</g>
</svg>
