<svg width="40" height="36" viewBox="0 0 40 36" fill="none" xmlns="http://www.w3.org/2000/svg">
<g id="Xnix/Line/Truck_Speed">
<g id="Vector">
<path id="Vector-4" fill-rule="evenodd" clip-rule="evenodd" d="M19.401 25.2385C19.3648 26.994 17.9187 28.3913 16.1629 28.3672C14.4072 28.3432 13 26.9068 13.0118 25.151C13.0236 23.3952 14.4502 21.9779 16.206 21.9775C17.0622 21.9862 17.8798 22.3347 18.479 22.9463C19.0782 23.5578 19.4098 24.3824 19.401 25.2385V25.2385Z" stroke="#674800" stroke-width="2.25" stroke-linecap="round" stroke-linejoin="round"/>
<path id="Vector-5" fill-rule="evenodd" clip-rule="evenodd" d="M34.6178 25.2385C34.5816 26.994 33.1355 28.3913 31.3797 28.3672C29.624 28.3432 28.2167 26.9068 28.2286 25.151C28.2404 23.3952 29.667 21.9779 31.4228 21.9775C32.279 21.9862 33.0966 22.3347 33.6958 22.9463C34.2949 23.5578 34.6266 24.3824 34.6178 25.2385V25.2385Z" stroke="#674800" stroke-width="2.25" stroke-linecap="round" stroke-linejoin="round"/>
<path id="Vector-6" d="M27.8504 26.3643C28.4717 26.3643 28.9754 25.8606 28.9754 25.2393C28.9754 24.6179 28.4717 24.1143 27.8504 24.1143V26.3643ZM19.3994 24.1143C18.7781 24.1143 18.2744 24.6179 18.2744 25.2393C18.2744 25.8606 18.7781 26.3643 19.3994 26.3643V24.1143ZM26.7324 25.2391C26.7324 25.8604 27.2361 26.3641 27.8574 26.3641C28.4787 26.3641 28.9824 25.8604 28.9824 25.2391H26.7324ZM28.9824 17.3386C28.9824 16.7173 28.4787 16.2136 27.8574 16.2136C27.2361 16.2136 26.7324 16.7173 26.7324 17.3386H28.9824ZM27.8567 24.1143C27.2354 24.1143 26.7317 24.6179 26.7317 25.2393C26.7317 25.8606 27.2354 26.3643 27.8567 26.3643V24.1143ZM28.2332 26.3643C28.8545 26.3643 29.3582 25.8606 29.3582 25.2393C29.3582 24.6179 28.8545 24.1143 28.2332 24.1143V26.3643ZM34.5998 24.1144C33.9786 24.1275 33.4857 24.6417 33.4988 25.2629C33.5119 25.8841 34.0261 26.377 34.6473 26.3639L34.5998 24.1144ZM38 21.7276L39.1249 21.7073C39.1238 21.6479 39.118 21.5886 39.1075 21.53L38 21.7276ZM38.3246 17.141C38.2154 16.5294 37.6311 16.122 37.0195 16.2311C36.4078 16.3402 36.0004 16.9245 36.1095 17.5362L38.3246 17.141ZM27.8516 9.1905C27.2302 9.1905 26.7266 9.69418 26.7266 10.3155C26.7266 10.9368 27.2302 11.4405 27.8516 11.4405V9.1905ZM33.2081 10.3155V11.4405L33.2152 11.4405L33.2081 10.3155ZM35.6524 11.3458L34.8422 12.1263L35.6524 11.3458ZM36.5906 13.827L35.4666 13.7778C35.463 13.8605 35.4685 13.9433 35.4831 14.0247L36.5906 13.827ZM36.1101 17.5362C36.2193 18.1479 36.8037 18.5552 37.4153 18.446C38.027 18.3368 38.4343 17.7524 38.325 17.1407L36.1101 17.5362ZM28.9766 10.3154C28.9766 9.69411 28.4729 9.19043 27.8516 9.19043C27.2302 9.19043 26.7266 9.69411 26.7266 10.3154H28.9766ZM26.7266 17.3384C26.7266 17.9598 27.2302 18.4634 27.8516 18.4634C28.4729 18.4634 28.9766 17.9598 28.9766 17.3384H26.7266ZM26.7253 10.3155C26.7253 10.9368 27.229 11.4405 27.8503 11.4405C28.4716 11.4405 28.9753 10.9368 28.9753 10.3155H26.7253ZM27.8503 9.1155L26.7253 9.10812V9.1155H27.8503ZM26.2543 7.5L26.2606 6.375H26.2543V7.5ZM11.8768 7.5V6.37499L11.8716 6.37501L11.8768 7.5ZM10.7441 7.97539L9.9449 7.18362L9.9449 7.18362L10.7441 7.97539ZM10.2793 9.1125H11.4043L11.4043 9.10723L10.2793 9.1125ZM10.2793 23.625L11.4043 23.6303V23.625H10.2793ZM10.7441 24.7621L9.9449 25.5539H9.9449L10.7441 24.7621ZM11.8768 25.2375L11.8716 26.3625H11.8768V25.2375ZM13.0033 26.3625C13.6246 26.3625 14.1283 25.8588 14.1283 25.2375C14.1283 24.6162 13.6246 24.1125 13.0033 24.1125V26.3625ZM27.8545 16.2122C27.2332 16.2122 26.7295 16.7158 26.7295 17.3372C26.7295 17.9585 27.2332 18.4622 27.8545 18.4622V16.2122ZM37.2205 18.4622C37.8418 18.4622 38.3455 17.9585 38.3455 17.3372C38.3455 16.7158 37.8418 16.2122 37.2205 16.2122V18.4622ZM2 9.375C1.37868 9.375 0.875 9.87868 0.875 10.5C0.875 11.1213 1.37868 11.625 2 11.625V9.375ZM6.695 11.625C7.31632 11.625 7.82 11.1213 7.82 10.5C7.82 9.87868 7.31632 9.375 6.695 9.375V11.625ZM3.5 13.875C2.87868 13.875 2.375 14.3787 2.375 15C2.375 15.6213 2.87868 16.125 3.5 16.125V13.875ZM6.5 16.125C7.12132 16.125 7.625 15.6213 7.625 15C7.625 14.3787 7.12132 13.875 6.5 13.875V16.125ZM4.41553 18.375C3.79421 18.375 3.29053 18.8787 3.29053 19.5C3.29053 20.1213 3.79421 20.625 4.41553 20.625V18.375ZM6.50053 20.625C7.12185 20.625 7.62553 20.1213 7.62553 19.5C7.62553 18.8787 7.12185 18.375 6.50053 18.375V20.625ZM27.8504 24.1143H19.3994V26.3643H27.8504V24.1143ZM28.9824 25.2391V17.3386H26.7324V25.2391H28.9824ZM27.8567 26.3643H28.2332V24.1143H27.8567V26.3643ZM34.6473 26.3639C37.1679 26.3106 39.1704 24.2281 39.1249 21.7073L36.8752 21.7479C36.8983 23.029 35.8807 24.0873 34.5998 24.1144L34.6473 26.3639ZM39.1075 21.53L38.3246 17.141L36.1095 17.5362L36.8925 21.9252L39.1075 21.53ZM27.8516 11.4405H33.2081V9.1905H27.8516V11.4405ZM33.2152 11.4405C33.8285 11.4366 34.4167 11.6845 34.8422 12.1263L36.4627 10.5653C35.6096 9.67971 34.4306 9.18277 33.201 9.19052L33.2152 11.4405ZM34.8422 12.1263C35.2677 12.568 35.4935 13.165 35.4666 13.7778L37.7145 13.8762C37.7682 12.6477 37.3158 11.4509 36.4627 10.5653L34.8422 12.1263ZM35.4831 14.0247L36.1101 17.5362L38.325 17.1407L37.698 13.6292L35.4831 14.0247ZM26.7266 10.3154V17.3384H28.9766V10.3154H26.7266ZM28.9753 10.3155V9.1155H26.7253V10.3155H28.9753ZM28.9753 9.12288C28.98 8.39839 28.6966 7.70173 28.1874 7.18633L26.5868 8.76763C26.6763 8.85825 26.7262 8.98074 26.7253 9.10812L28.9753 9.12288ZM28.1874 7.18633C27.6783 6.67093 26.9851 6.37906 26.2606 6.37502L26.248 8.62498C26.3754 8.62569 26.4973 8.67701 26.5868 8.76763L28.1874 7.18633ZM26.2543 6.375H11.8768V8.625H26.2543V6.375ZM11.8716 6.37501C11.1475 6.37839 10.4545 6.66925 9.9449 7.18362L11.5433 8.76716C11.6329 8.67672 11.7548 8.62558 11.8821 8.62499L11.8716 6.37501ZM9.9449 7.18362C9.43531 7.69799 9.15094 8.39373 9.15433 9.11777L11.4043 9.10723C11.4037 8.97993 11.4537 8.8576 11.5433 8.76716L9.9449 7.18362ZM9.15431 9.1125V23.625H11.4043V9.1125H9.15431ZM9.15433 23.6197C9.15094 24.3438 9.43531 25.0395 9.9449 25.5539L11.5433 23.9703C11.4537 23.8799 11.4037 23.7576 11.4043 23.6303L9.15433 23.6197ZM9.9449 25.5539C10.4545 26.0682 11.1475 26.3591 11.8716 26.3625L11.8821 24.1125C11.7548 24.1119 11.6329 24.0608 11.5433 23.9703L9.9449 25.5539ZM11.8768 26.3625H13.0033V24.1125H11.8768V26.3625ZM27.8545 18.4622H37.2205V16.2122H27.8545V18.4622ZM2 11.625H6.695V9.375H2V11.625ZM3.5 16.125H6.5V13.875H3.5V16.125ZM4.41553 20.625H6.50053V18.375H4.41553V20.625Z" fill="#674800"/>
</g>
</g>
</svg>
