<svg width="20" height="20" viewBox="0 0 20 20" fill="none" xmlns="http://www.w3.org/2000/svg">
<path d="M12.2381 7.28174H7.76094C7.49643 7.28174 7.28125 7.49691 7.28125 7.76142V9.6802C7.28125 9.94472 7.49643 10.1599 7.76094 10.1599H12.2381C12.5026 10.1599 12.7178 9.94472 12.7178 9.6802V7.76142C12.7178 7.49691 12.5026 7.28174 12.2381 7.28174Z" fill="#C9CBD0"/>
<path d="M10.9601 1.68555H9.04133C6.4845 1.68555 4.4043 3.76572 4.4043 6.32258V12.745C4.4043 14.3964 4.90766 15.9823 5.85999 17.3314L6.12424 17.7058C6.39349 18.0872 6.833 18.3149 7.29989 18.3149H12.7016C13.1685 18.3149 13.608 18.0872 13.8773 17.7058L14.1415 17.3314C15.0938 15.9823 15.5971 14.3963 15.5971 12.745V6.32258C15.5972 3.76572 13.517 1.68555 10.9601 1.68555ZM11.2799 14.9571H8.72157C8.45667 14.9571 8.24189 14.7423 8.24189 14.4774C8.24189 14.2125 8.45667 13.9977 8.72157 13.9977H11.2799C11.5448 13.9977 11.7596 14.2125 11.7596 14.4774C11.7596 14.7423 11.5448 14.9571 11.2799 14.9571ZM11.9195 13.0383H8.08196C7.81703 13.0383 7.60227 12.8235 7.60227 12.5586C7.60227 12.2937 7.81706 12.0789 8.08196 12.0789H11.9195C12.1844 12.0789 12.3992 12.2937 12.3992 12.5586C12.3992 12.8235 12.1844 13.0383 11.9195 13.0383ZM13.6784 9.68045C13.6784 10.474 13.0328 11.1195 12.2393 11.1195H7.76217C6.96867 11.1195 6.32308 10.474 6.32308 9.68045V7.76167C6.32308 6.96817 6.96863 6.32258 7.76217 6.32258H12.2393C13.0328 6.32258 13.6784 6.96814 13.6784 7.76167V9.68045Z" fill="#C9CBD0"/>
<path d="M3.12464 6.32227C2.33111 6.32227 1.68555 6.96786 1.68555 7.76136V9.68014C1.68555 10.4736 2.33111 11.1192 3.12464 11.1192H3.44443V6.32227H3.12464Z" fill="#C9CBD0"/>
<path d="M16.8764 6.32227H16.5566V11.1192H16.8764C17.6699 11.1192 18.3155 10.4736 18.3155 9.6801V7.76133C18.3155 6.96786 17.67 6.32227 16.8764 6.32227Z" fill="#C9CBD0"/>
</svg>
