<svg width="24" height="24" viewBox="0 0 24 24" fill="none" xmlns="http://www.w3.org/2000/svg">
<g id="24px / Zoom-in">
<path id="Icon" d="M17.6223 16.3209C17.2253 15.9369 16.5922 15.9474 16.2082 16.3443C15.8242 16.7412 15.8347 17.3743 16.2317 17.7583L17.6223 16.3209ZM19.7048 21.1183C20.1017 21.5023 20.7348 21.4918 21.1188 21.0949C21.5028 20.698 21.4923 20.0649 21.0954 19.6809L19.7048 21.1183ZM10.4001 14.3996C10.4001 14.9519 10.8478 15.3996 11.4001 15.3996C11.9524 15.3996 12.4001 14.9519 12.4001 14.3996H10.4001ZM12.4001 8.39961C12.4001 7.84732 11.9524 7.39961 11.4001 7.39961C10.8478 7.39961 10.4001 7.84732 10.4001 8.39961H12.4001ZM8.4001 10.3996C7.84781 10.3996 7.4001 10.8473 7.4001 11.3996C7.4001 11.9519 7.84781 12.3996 8.4001 12.3996V10.3996ZM14.4001 12.3996C14.9524 12.3996 15.4001 11.9519 15.4001 11.3996C15.4001 10.8473 14.9524 10.3996 14.4001 10.3996V12.3996ZM18.2801 11.4396C18.2801 15.2172 15.2177 18.2796 11.4401 18.2796V20.2796C16.3223 20.2796 20.2801 16.3218 20.2801 11.4396H18.2801ZM11.4401 18.2796C7.66247 18.2796 4.6001 15.2172 4.6001 11.4396H2.6001C2.6001 16.3218 6.5579 20.2796 11.4401 20.2796V18.2796ZM4.6001 11.4396C4.6001 7.66198 7.66247 4.59961 11.4401 4.59961V2.59961C6.5579 2.59961 2.6001 6.55741 2.6001 11.4396H4.6001ZM11.4401 4.59961C15.2177 4.59961 18.2801 7.66198 18.2801 11.4396H20.2801C20.2801 6.55741 16.3223 2.59961 11.4401 2.59961V4.59961ZM16.2317 17.7583L19.7048 21.1183L21.0954 19.6809L17.6223 16.3209L16.2317 17.7583ZM12.4001 14.3996V11.3996H10.4001V14.3996H12.4001ZM12.4001 11.3996V8.39961H10.4001V11.3996H12.4001ZM8.4001 12.3996H11.4001V10.3996H8.4001V12.3996ZM11.4001 12.3996H14.4001V10.3996H11.4001V12.3996Z" fill="#283142"/>
</g>
</svg>
