<?xml version="1.0" standalone="no"?>
<!DOCTYPE svg PUBLIC "-//W3C//DTD SVG 20010904//EN"
 "http://www.w3.org/TR/2001/REC-SVG-20010904/DTD/svg10.dtd">
<svg version="1.0" xmlns="http://www.w3.org/2000/svg"
 width="700.000000pt" height="700.000000pt" viewBox="0 0 700.000000 700.000000"
 preserveAspectRatio="xMidYMid meet">
<metadata>
Created by potrace 1.14, written by Peter Selinger 2001-2017
</metadata>
<g transform="translate(0.000000,700.000000) scale(0.100000,-0.100000)"
fill="#000000" stroke="none">
<path d="M3219 6996 c-2 -2 -42 -6 -89 -10 -205 -16 -451 -66 -690 -141 -167
-52 -308 -109 -485 -195 -135 -66 -388 -209 -405 -229 -3 -4 -18 -15 -35 -25
-191 -121 -512 -410 -691 -621 -412 -487 -694 -1082 -795 -1679 -11 -66 -21
-148 -21 -181 0 -33 -1 -85 -1 -115 -4 -182 0 -576 6 -635 19 -171 24 -209 53
-360 78 -409 232 -802 457 -1165 39 -63 75 -119 79 -125 5 -5 35 -46 67 -91
67 -93 65 -90 165 -209 86 -101 288 -303 386 -385 36 -30 67 -57 70 -60 3 -3
48 -37 100 -76 306 -228 621 -393 979 -513 169 -57 416 -118 551 -136 25 -3
52 -8 60 -10 8 -2 41 -6 73 -10 31 -3 85 -8 120 -12 88 -9 483 -10 597 0 364
30 725 117 1050 255 150 63 325 151 433 217 50 31 101 62 111 68 46 28 235
163 281 201 374 306 671 653 904 1059 176 306 329 714 386 1032 40 228 47 312
24 329 -10 6 -14 21 -12 36 13 78 5 589 -11 690 -2 14 -7 50 -11 80 -14 118
-16 135 -21 149 -3 8 -7 30 -10 50 -27 174 -136 536 -208 694 -8 17 -37 89
-64 158 -81 203 -163 346 -327 565 -156 208 -437 504 -540 569 -16 11 -77 56
-135 101 -114 89 -330 233 -425 284 -233 126 -325 168 -535 245 -104 38 -351
112 -400 120 -25 4 -54 9 -65 11 -40 8 -181 34 -210 39 -16 2 -59 7 -95 11
-36 3 -78 8 -95 11 -37 6 -570 15 -576 9z"/>
</g>
</svg>
