<svg xmlns="http://www.w3.org/2000/svg" xmlns:xlink="http://www.w3.org/1999/xlink"><symbol id="Arrow-left" viewBox="0 0 16 16"><g id="16px / Arrow-left"><path id="Icon" d="M7.16667 3.625L3 8M3 8L7.16667 12.375M3 8L13 8" stroke-width="1.33" stroke-linecap="round" stroke-linejoin="round"/></g></symbol><use xlink:href="#Arrow-left" width="16" height="16" y="0"/><symbol id="Arrow-narrow-up-right" viewBox="0 0 24 24"><g id="24px / Arrow-narrow-up-right"><path id="Icon" d="M6 18L18 6M18 6H10M18 6V14" stroke-width="2" stroke-linecap="round" stroke-linejoin="round"/></g></symbol><use xlink:href="#Arrow-narrow-up-right" width="24" height="24" y="16"/><symbol id="Arrow-right" viewBox="0 0 25 24"><g id="24px / Arrow-right"><path id="Icon" d="M13.75 5.4375L20 12M20 12L13.75 18.5625M20 12L5 12" stroke-width="1.995" stroke-linecap="round" stroke-linejoin="round"/></g></symbol><use xlink:href="#Arrow-right" width="25" height="24" y="40"/><symbol id="Basket" viewBox="0 0 24 24"><g id="24px / Shopping Basket"><path id="Icon" d="M21.5 2C22.0523 2 22.5 2.44772 22.5 3C22.5 3.55228 22.0523 4 21.5 4V2ZM19.2313 3L18.2691 2.72769C18.391 2.29719 18.7839 2 19.2313 2V3ZM15.5448 16.0263L16.507 16.2986C16.373 16.772 15.9145 17.0776 15.426 17.0192L15.5448 16.0263ZM4.20149 14.6694L4.08272 15.6623C3.65907 15.6116 3.31424 15.2977 3.22408 14.8807L4.20149 14.6694ZM2.5 6.79933L1.52258 7.01065C1.4587 6.71516 1.53192 6.40664 1.72176 6.17137C1.9116 5.93609 2.19769 5.79933 2.5 5.79933V6.79933ZM18.1561 6.79933L19.1183 7.07165L19.1183 7.07165L18.1561 6.79933ZM21.5 4H19.2313V2H21.5V4ZM15.426 17.0192L4.08272 15.6623L4.32027 13.6765L15.6636 15.0334L15.426 17.0192ZM3.22408 14.8807L1.52258 7.01065L3.47742 6.58802L5.17891 14.4581L3.22408 14.8807ZM20.1936 3.27231L19.1183 7.07165L17.1939 6.52702L18.2691 2.72769L20.1936 3.27231ZM19.1183 7.07165L16.507 16.2986L14.5826 15.754L17.1939 6.52702L19.1183 7.07165ZM2.5 5.79933H18.1561V7.79933H2.5V5.79933ZM13 19.5795C13 19.7707 13.175 20 13.4844 20V22C12.1542 22 11 20.9573 11 19.5795H13ZM13.4844 20C13.7938 20 13.9687 19.7707 13.9687 19.5795H15.9687C15.9687 20.9573 14.8146 22 13.4844 22V20ZM13.9687 19.5795C13.9687 19.3882 13.7938 19.159 13.4844 19.159V17.159C14.8146 17.159 15.9687 18.2017 15.9687 19.5795H13.9687ZM13.4844 19.159C13.175 19.159 13 19.3882 13 19.5795H11C11 18.2017 12.1542 17.159 13.4844 17.159V19.159ZM5.08333 19.5795C5.08333 19.7707 5.25829 20 5.56771 20V22C4.23753 22 3.08333 20.9573 3.08333 19.5795H5.08333ZM5.56771 20C5.87712 20 6.05208 19.7707 6.05208 19.5795H8.05208C8.05208 20.9573 6.89789 22 5.56771 22V20ZM6.05208 19.5795C6.05208 19.3882 5.87712 19.159 5.56771 19.159V17.159C6.89789 17.159 8.05208 18.2017 8.05208 19.5795H6.05208ZM5.56771 19.159C5.25829 19.159 5.08333 19.3882 5.08333 19.5795H3.08333C3.08333 18.2017 4.23753 17.159 5.56771 17.159V19.159Z"/></g></symbol><use xlink:href="#Basket" width="24" height="24" y="64"/><symbol id="bi_badge-vr-fill" viewBox="0 0 20 21"><g id="bi:badge-vr-fill" opacity="0.5"><g id="Group"><path id="Vector" d="M12.0918 7.91602V10.3385H13.383C14.208 10.3385 14.718 9.94352 14.718 9.15102C14.718 8.35102 14.1905 7.91602 13.4055 7.91602H12.0918Z"/><path id="Vector_2" d="M0 5.5C0 4.83696 0.263392 4.20107 0.732233 3.73223C1.20107 3.26339 1.83696 3 2.5 3H17.5C18.163 3 18.7989 3.26339 19.2678 3.73223C19.7366 4.20107 20 4.83696 20 5.5V15.5C20 16.163 19.7366 16.7989 19.2678 17.2678C18.7989 17.7366 18.163 18 17.5 18H2.5C1.83696 18 1.20107 17.7366 0.732233 17.2678C0.263392 16.7989 0 16.163 0 15.5V5.5ZM7.42125 14.25L9.90875 6.75125H8.2625L6.59625 12.635H6.525L4.84375 6.75125H3.125L5.635 14.25H7.42125ZM10.625 6.75125V14.25H12.0913V11.4537H13.4213L14.7337 14.25H16.3925L14.8875 11.2288C15.5687 10.9663 16.25 10.2238 16.25 9.125C16.25 7.69125 15.2838 6.75 13.6188 6.75L10.625 6.75125Z"/></g></g></symbol><use xlink:href="#bi_badge-vr-fill" width="20" height="21" y="88"/><symbol id="Burger" viewBox="0 0 24 24"><g id="24px / Burger"><path id="Icon (Stroke)" fill-rule="evenodd" clip-rule="evenodd" d="M3 6C3 5.44772 3.44772 5 4 5H20C20.5523 5 21 5.44772 21 6C21 6.55228 20.5523 7 20 7H4C3.44772 7 3 6.55228 3 6ZM3 12C3 11.4477 3.44772 11 4 11H20C20.5523 11 21 11.4477 21 12C21 12.5523 20.5523 13 20 13H4C3.44772 13 3 12.5523 3 12ZM3 18C3 17.4477 3.44772 17 4 17H20C20.5523 17 21 17.4477 21 18C21 18.5523 20.5523 19 20 19H4C3.44772 19 3 18.5523 3 18Z"/></g></symbol><use xlink:href="#Burger" width="24" height="24" y="109"/><symbol id="bxs_discount" viewBox="0 0 16 16"><g id="bxs:discount"><path id="Vector" d="M14 3.33337H2.00004C1.82323 3.33337 1.65366 3.40361 1.52864 3.52864C1.40361 3.65366 1.33337 3.82323 1.33337 4.00004V6.66671H1.92871C2.59271 6.66671 3.20871 7.12071 3.31537 7.77604C3.34787 7.9674 3.33821 8.16354 3.28708 8.35079C3.23595 8.53803 3.14458 8.71186 3.01934 8.86014C2.89409 9.00843 2.738 9.12759 2.56195 9.20933C2.3859 9.29106 2.19414 9.3334 2.00004 9.33337H1.33337V12C1.33337 12.1769 1.40361 12.3464 1.52864 12.4714C1.65366 12.5965 1.82323 12.6667 2.00004 12.6667H14C14.1769 12.6667 14.3464 12.5965 14.4714 12.4714C14.5965 12.3464 14.6667 12.1769 14.6667 12V9.33337H14C13.8059 9.3334 13.6142 9.29106 13.4381 9.20933C13.2621 9.12759 13.106 9.00843 12.9807 8.86014C12.8555 8.71186 12.7641 8.53803 12.713 8.35079C12.6619 8.16354 12.6522 7.9674 12.6847 7.77604C12.7914 7.12071 13.4074 6.66671 14.0714 6.66671H14.6667V4.00004C14.6667 3.82323 14.5965 3.65366 14.4714 3.52864C14.3464 3.40361 14.1769 3.33337 14 3.33337ZM6.00004 6.00004C6.17685 6.00004 6.34642 6.07028 6.47144 6.1953C6.59647 6.32033 6.66671 6.4899 6.66671 6.66671C6.66671 6.84352 6.59647 7.01309 6.47144 7.13811C6.34642 7.26314 6.17685 7.33337 6.00004 7.33337C5.82323 7.33337 5.65366 7.26314 5.52864 7.13811C5.40361 7.01309 5.33337 6.84352 5.33337 6.66671C5.33337 6.4899 5.40361 6.32033 5.52864 6.1953C5.65366 6.07028 5.82323 6.00004 6.00004 6.00004ZM5.46671 10.2667L9.46671 4.93337L10.5334 5.73337L6.53337 11.0667L5.46671 10.2667ZM10 10C9.82323 10 9.65366 9.9298 9.52864 9.80478C9.40361 9.67975 9.33337 9.51018 9.33337 9.33337C9.33337 9.15656 9.40361 8.98699 9.52864 8.86197C9.65366 8.73695 9.82323 8.66671 10 8.66671C10.1769 8.66671 10.3464 8.73695 10.4714 8.86197C10.5965 8.98699 10.6667 9.15656 10.6667 9.33337C10.6667 9.51018 10.5965 9.67975 10.4714 9.80478C10.3464 9.9298 10.1769 10 10 10Z"/></g></symbol><use xlink:href="#bxs_discount" width="16" height="16" y="133"/><symbol id="catalog" viewBox="0 0 12 13"><g id="Group 2"><rect id="Rectangle 41" y="0.5" width="5" height="5" rx="1"/><rect id="Rectangle 42" x="7" y="0.5" width="5" height="5" rx="1"/><rect id="Rectangle 43" x="7" y="7.5" width="5" height="5" rx="1"/><rect id="Rectangle 44" y="7.5" width="5" height="5" rx="1"/></g></symbol><use xlink:href="#catalog" width="12" height="13" y="149"/><symbol id="Check" viewBox="0 0 16 16"><g id="16px / Check"><path id="Icon" d="M12.7992 4.3999L5.6397 11.5999L3.19922 9.14562" stroke-width="1.5" stroke-linecap="round" stroke-linejoin="round"/></g></symbol><use xlink:href="#Check" width="16" height="16" y="162"/><symbol id="Chevron-down" viewBox="0 0 16 16"><g id="16px / Chevron-down"><path id="Vector" d="M4.66602 6.6665L7.99989 9.71984L11.3327 6.6665" stroke-width="1.33333" stroke-linecap="round" stroke-linejoin="round"/></g></symbol><use xlink:href="#Chevron-down" width="16" height="16" y="178"/><symbol id="Chevron-left" viewBox="0 0 16 16"><g id="16px / Chevron-left"><path id="Icon" d="M6.00001 11.333L9.33334 7.99967L6.00001 4.66634" stroke-width="1.2" stroke-linecap="round" stroke-linejoin="round"/></g></symbol><use xlink:href="#Chevron-left" width="16" height="16" y="194"/><symbol id="clock-forward" viewBox="0 0 14 14"><g id="clock-forward"><path id="Icon" d="M8.53125 8.3125L6.5625 7.65625V4.91217M11.8125 7C11.8125 4.1005 9.462 1.75 6.5625 1.75C3.66301 1.75 1.3125 4.1005 1.3125 7C1.3125 9.89949 3.66301 12.25 6.5625 12.25C8.50574 12.25 10.2024 11.1942 11.1101 9.625M10.3723 6.42387L11.6848 7.73637L12.9973 6.42387" stroke-width="1.5" stroke-linecap="round" stroke-linejoin="round"/></g></symbol><use xlink:href="#clock-forward" width="14" height="14" y="210"/><symbol id="Clock" viewBox="0 0 16 16"><g id="16px / Clock"><path id="Icon (Stroke)" fill-rule="evenodd" clip-rule="evenodd" d="M8.33268 2.66634C5.38716 2.66634 2.99935 5.05416 2.99935 7.99967C2.99935 10.9452 5.38716 13.333 8.33268 13.333C11.2782 13.333 13.666 10.9452 13.666 7.99967C13.666 5.05416 11.2782 2.66634 8.33268 2.66634ZM1.66602 7.99967C1.66602 4.31778 4.65078 1.33301 8.33268 1.33301C12.0146 1.33301 14.9993 4.31778 14.9993 7.99967C14.9993 11.6816 12.0146 14.6663 8.33268 14.6663C4.65078 14.6663 1.66602 11.6816 1.66602 7.99967ZM8.33268 4.94692C8.70087 4.94692 8.99935 5.2454 8.99935 5.61359V8.26917L10.7935 8.86722C11.1428 8.98365 11.3316 9.3612 11.2151 9.71049C11.0987 10.0598 10.7212 10.2486 10.3719 10.1321L8.12186 9.38213C7.84964 9.29139 7.66602 9.03663 7.66602 8.74967V5.61359C7.66602 5.2454 7.96449 4.94692 8.33268 4.94692Z"/></g></symbol><use xlink:href="#Clock" width="16" height="16" y="224"/><symbol id="Compare" viewBox="0 0 25 24"><g id="24px / Compare"><g id="Icon"><path d="M5.24428 1.7998H3.30078V22.1998H5.24428L5.24428 1.7998Z"/><path fill-rule="evenodd" clip-rule="evenodd" d="M9.15276 4.7998C7.91112 4.7998 6.89475 5.77943 6.89475 6.9998V8.9998C6.89475 10.2202 7.91112 11.1998 9.15276 11.1998H19.4428C20.6844 11.1998 21.7008 10.2202 21.7008 8.9998V6.9998C21.7008 5.77943 20.6844 4.7998 19.4428 4.7998H9.15276ZM8.83825 6.9998C8.83825 6.83947 8.97363 6.6998 9.15276 6.6998H19.4428C19.6219 6.6998 19.7573 6.83947 19.7573 6.9998V8.9998C19.7573 9.16014 19.6219 9.2998 19.4428 9.2998H9.15276C8.97363 9.2998 8.83825 9.16014 8.83825 8.9998V6.9998Z"/><path fill-rule="evenodd" clip-rule="evenodd" d="M9.15276 12.7998C7.91112 12.7998 6.89475 13.7794 6.89475 14.9998V16.9998C6.89475 18.2202 7.91112 19.1998 9.15276 19.1998H15.3268C16.5684 19.1998 17.5848 18.2202 17.5848 16.9998V14.9998C17.5848 13.7794 16.5684 12.7998 15.3268 12.7998H9.15276ZM8.83825 14.9998C8.83825 14.8395 8.97363 14.6998 9.15276 14.6998H15.3268C15.5059 14.6998 15.6413 14.8395 15.6413 14.9998V16.9998C15.6413 17.1601 15.5059 17.2998 15.3268 17.2998H9.15276C8.97363 17.2998 8.83825 17.1601 8.83825 16.9998V14.9998Z"/></g></g></symbol><use xlink:href="#Compare" width="25" height="24" y="240"/><symbol id="crane" viewBox="0 0 21 20"><path d="M13.9096 1.96777H7.11289C6.34633 1.96777 5.72266 2.59142 5.72266 3.35801V4.59378H15.2998V3.35801C15.2998 2.59142 14.6761 1.96777 13.9096 1.96777Z"/><path d="M12.3736 10.927C12.1132 10.9263 11.9014 10.7184 11.9014 10.4636V9.07332H12.9827C13.1056 9.07332 13.2235 9.0245 13.3103 8.93758L15.164 7.08394C15.2509 6.99706 15.2997 6.87921 15.2997 6.75628V5.52051H5.72266V6.75628C5.72266 6.87921 5.77151 6.99706 5.85839 7.08394L7.71203 8.93758C7.79894 9.02453 7.9168 9.07332 8.0397 9.07332H9.121V10.4636C9.121 12.2474 10.5722 13.7026 12.3561 13.7074C12.6165 13.7081 12.8283 13.916 12.8283 14.1708V14.7887C12.8283 15.0442 12.6204 15.2521 12.3649 15.2521H10.5267C9.92192 15.2521 9.42993 14.7601 9.42993 14.1554V13.8619C9.42993 13.0953 8.80629 12.4716 8.0397 12.4716C7.2731 12.4716 6.64946 13.0953 6.64946 13.8619V14.1554C6.64946 16.2933 8.38876 18.0326 10.5266 18.0326H12.3648C14.1535 18.0326 15.6087 16.5774 15.6087 14.7887V14.1708C15.6087 12.3869 14.1575 10.9318 12.3736 10.927ZM10.8201 7.37418H10.2023C9.94633 7.37418 9.73887 7.16668 9.73887 6.91078C9.73887 6.65487 9.94636 6.44737 10.2023 6.44737H10.8201C11.0761 6.44737 11.2835 6.65487 11.2835 6.91078C11.2835 7.16668 11.0761 7.37418 10.8201 7.37418Z"/></symbol><use xlink:href="#crane" width="21" height="20" y="264"/><symbol id="Dzen" viewBox="0 0 20 20"><g id="24px/Dzen" clip-path="url(#clip0_18835_1085)"><path id="Vector" d="M21.25 10.1205V9.87949C16.2678 9.71875 13.9938 9.59824 12.1697 7.8303C10.4018 6.00625 10.2732 3.7322 10.1205 -1.25H9.87949C9.71875 3.7322 9.59824 6.00625 7.8303 7.8303C6.00625 9.59824 3.7322 9.72677 -1.25 9.87949V10.1205C3.7322 10.2812 6.00625 10.4018 7.8303 12.1697C9.59824 13.9938 9.72677 16.2678 9.87949 21.25H10.1205C10.2812 16.2678 10.4018 13.9938 12.1697 12.1697C13.9938 10.4018 16.2678 10.2732 21.25 10.1205Z"/></g><defs><clipPath id="clip0_18835_1085"><rect width="20" height="20"/></clipPath></defs></symbol><use xlink:href="#Dzen" width="20" height="20" y="284"/><symbol id="flash-on" viewBox="0 0 40 40"><g id="flash-on"><path id="Icon" d="M31.8289 18.4783L20.1528 35.534C19.5647 36.3816 18.1809 36.001 18.1809 34.9804L18.1636 25.2244C18.1636 24.1001 17.2122 23.2006 16.036 23.1833L9.06491 23.0968C8.21731 23.0795 7.71568 22.1973 8.18272 21.5227L19.8588 4.46698C20.4469 3.61939 21.8307 3.99995 21.8307 5.02053L21.8481 14.7765C21.8481 15.9009 22.7994 16.8004 23.9757 16.8177L30.9467 16.9042C31.777 16.9042 32.2787 17.8036 31.8289 18.4783Z" stroke-width="3.33333" stroke-linecap="round" stroke-linejoin="round"/></g><defs><linearGradient id="LinearGradient" x1="8.33093" y1="-10.5682" x2="39.422" y2="-6.15907" gradientUnits="userSpaceOnUse"><stop stop-color="#F5B316"/><stop offset="1" stop-color="#F5851A"/></linearGradient></defs></symbol><use xlink:href="#flash-on" width="40" height="40" y="304"/><symbol id="Gear-lg" viewBox="0 0 24 24"><g id="24px / Gear"><path id="Icon" fill-rule="evenodd" clip-rule="evenodd" d="M21 7L12 2L3 7V17L12 22L21 17V7ZM12 15.3333C13.9132 15.3333 15.4641 13.841 15.4641 12C15.4641 10.1591 13.9132 8.66667 12 8.66667C10.0868 8.66667 8.5359 10.1591 8.5359 12C8.5359 13.841 10.0868 15.3333 12 15.3333Z" stroke-width="2" stroke-linejoin="round"/></g></symbol><use xlink:href="#Gear-lg" width="24" height="24" y="344"/><symbol id="gear" viewBox="0 0 20 20"><path d="M10 8.58984C9.22246 8.58984 8.58984 9.22243 8.58984 10C8.58984 10.7776 9.22243 11.4102 10 11.4102C10.7776 11.4102 11.4102 10.7776 11.4102 10C11.4102 9.22243 10.7776 8.58984 10 8.58984Z"/><path d="M17.05 8.27663H15.2066C15.1228 8.02326 15.0202 7.77612 14.8998 7.53704L16.2036 6.23316C16.6312 5.80554 16.6312 5.10971 16.2036 4.68206L15.3173 3.79572C14.8896 3.36806 14.1938 3.36809 13.7661 3.79572L12.4623 5.09956C12.2232 4.97913 11.9761 4.87655 11.7227 4.79269V2.94935C11.7227 2.34455 11.2307 1.85254 10.6259 1.85254H9.37243C8.76766 1.85254 8.27562 2.34455 8.27562 2.94935V4.79272C8.02222 4.87662 7.77511 4.97916 7.53603 5.09959L6.23219 3.79575C5.80456 3.36809 5.10871 3.36813 4.68105 3.79575L3.7948 4.68209C3.36718 5.10971 3.36718 5.80554 3.7948 6.2332L5.09862 7.53707C4.97815 7.77615 4.87561 8.02329 4.79174 8.27666H2.94837C2.34357 8.27663 1.85156 8.76867 1.85156 9.37344V10.6269C1.85156 11.2317 2.34357 11.7237 2.94837 11.7237H4.79174C4.87564 11.9771 4.97815 12.2243 5.09862 12.4633L3.79477 13.7672C3.36715 14.1948 3.36715 14.8906 3.79477 15.3183L4.68111 16.2046C5.10874 16.6323 5.8046 16.6323 6.23225 16.2046L7.53606 14.9008C7.77515 15.0212 8.02231 15.1238 8.27568 15.2077V17.0511C8.27568 17.6558 8.76769 18.1479 9.3725 18.1479H10.626C11.2308 18.1479 11.7228 17.6559 11.7228 17.0511V15.2077C11.9762 15.1238 12.2233 15.0212 12.4624 14.9008L13.7662 16.2047C14.1939 16.6323 14.8897 16.6323 15.3174 16.2047L16.2037 15.3183C16.6313 14.8907 16.6313 14.1948 16.2037 13.7672L14.8999 12.4633C15.0203 12.2243 15.1229 11.9771 15.2067 11.7237H17.0501C17.6549 11.7237 18.1469 11.2317 18.1469 10.6269V9.37344C18.1468 8.76867 17.6548 8.27663 17.05 8.27663ZM9.9992 12.3504C8.70324 12.3504 7.64892 11.2961 7.64892 10.0002C7.64892 8.70422 8.70324 7.6499 9.9992 7.6499C11.2951 7.6499 12.3495 8.70422 12.3495 10.0002C12.3495 11.2961 11.2951 12.3504 9.9992 12.3504Z"/></symbol><use xlink:href="#gear" width="20" height="20" y="368"/><symbol id="gravity-ui_tag-ruble" viewBox="0 0 36 36"><g id="gravity-ui:tag-ruble"><path id="Vector" fill-rule="evenodd" clip-rule="evenodd" d="M16.343 7.88909L6.58989 17.6499C6.2165 18.0237 6.00575 18.5301 6.0035 19.0587C6.00125 19.5874 6.20768 20.0955 6.57788 20.4725L15.3296 29.3933C15.702 29.7724 16.2095 29.9878 16.7405 29.9923C17.2716 29.9969 17.7827 29.7901 18.1614 29.4174L28.0948 19.6586C28.3798 19.3789 28.6063 19.0452 28.761 18.6769C28.9158 18.3086 28.9956 17.9131 28.996 17.5136V9.01171C28.996 8.48004 28.785 7.97014 28.4094 7.59419C28.0338 7.21823 27.5244 7.00703 26.9933 7.00703H18.4678C18.0731 7.00711 17.6823 7.08506 17.3177 7.23641C16.9531 7.38775 16.6219 7.60954 16.343 7.88909ZM30.2016 21.8056C30.7712 21.2457 31.2236 20.5777 31.5324 19.8408C31.8412 19.1039 32.0001 18.3127 32 17.5136V9.01171C32 7.68252 31.4725 6.40778 30.5336 5.4679C29.5946 4.52802 28.3211 4 26.9933 4H18.4678C17.6786 3.99991 16.897 4.15548 16.1678 4.45783C15.4387 4.76018 14.7761 5.20338 14.2181 5.76212L4.46504 15.5249C3.53218 16.4595 3.00567 17.7249 3.00005 19.046C2.99442 20.3671 3.51013 21.637 4.435 22.5794L13.1867 31.5003C14.1171 32.4484 15.3856 32.9878 16.7132 32.9998C18.0408 33.0118 19.3189 32.4955 20.2662 31.5644L30.2016 21.8056ZM22.3751 10.0902C22.0935 9.80867 21.7117 9.65053 21.3137 9.65053C20.9156 9.65053 20.5339 9.80867 20.2522 10.0902L16.7115 13.6325L16.5352 13.4561C16.2505 13.1905 15.8739 13.0459 15.4848 13.0528C15.0957 13.0597 14.7244 13.2175 14.4492 13.4929C14.174 13.7684 14.0164 14.1401 14.0095 14.5296C14.0026 14.9191 14.1471 15.2961 14.4124 15.5811L14.5866 15.7615L13.8797 16.4691L13.7034 16.2907C13.4217 16.0087 13.0395 15.8502 12.641 15.8502C12.2425 15.8502 11.8604 16.0087 11.5786 16.2907C11.2968 16.5728 11.1385 16.9553 11.1385 17.3542C11.1385 17.5517 11.1774 17.7473 11.2529 17.9298C11.3284 18.1122 11.4391 18.278 11.5786 18.4177L11.7548 18.5941L11.0479 19.3038C10.7826 19.5888 10.6381 19.9658 10.645 20.3553C10.6519 20.7448 10.8095 21.1164 11.0847 21.3919C11.3599 21.6674 11.7311 21.8252 12.1203 21.832C12.5094 21.8389 12.886 21.6943 13.1707 21.4287L13.8797 20.7211L16.0025 22.846C16.141 22.9897 16.3067 23.1043 16.4899 23.1832C16.6731 23.2621 16.8702 23.3037 17.0696 23.3055C17.2691 23.3073 17.4669 23.2694 17.6515 23.1939C17.8361 23.1183 18.0039 23.0068 18.145 22.8657C18.2861 22.7246 18.3977 22.5568 18.4733 22.372C18.5489 22.1873 18.587 21.9893 18.5854 21.7897C18.5837 21.5901 18.5424 21.3927 18.4637 21.2093C18.3851 21.0258 18.2708 20.8598 18.1274 20.7211L16.0045 18.5961L16.7115 17.8865L18.3056 19.4802C19.2037 20.3418 20.4033 20.8169 21.6472 20.8037C22.8911 20.7905 24.0804 20.29 24.96 19.4095C25.8396 18.529 26.3396 17.3385 26.3528 16.0934C26.366 14.8482 25.8914 13.6474 25.0306 12.7484L22.3751 10.0902ZM20.4285 17.3552L18.8363 15.7595L21.3137 13.2817L22.9078 14.8754C23.2366 15.2045 23.4213 15.6509 23.4213 16.1163C23.4213 16.5817 23.2366 17.0281 22.9078 17.3572C22.579 17.6863 22.1331 17.8712 21.6681 17.8712C21.2032 17.8712 20.7572 17.6843 20.4285 17.3552Z"/></g></symbol><use xlink:href="#gravity-ui_tag-ruble" width="36" height="36" y="388"/><symbol id="Heart" viewBox="0 0 25 24"><g id="24px / Heart"><path id="Icon" fill-rule="evenodd" clip-rule="evenodd" d="M4.81357 5.42552C5.65491 4.55014 6.79585 4.05838 7.9855 4.05838C9.17515 4.05838 10.3161 4.55014 11.1574 5.42552L12.472 6.7925L13.7865 5.42552C14.2003 4.97954 14.6954 4.62382 15.2428 4.3791C15.7901 4.13438 16.3788 4.00556 16.9746 4.00018C17.5703 3.99479 18.161 4.11293 18.7124 4.34772C19.2638 4.5825 19.7647 4.92922 20.1859 5.36765C20.6072 5.80607 20.9403 6.32742 21.1659 6.90128C21.3915 7.47514 21.505 8.09001 21.4998 8.71001C21.4947 9.33002 21.3709 9.94274 21.1358 10.5124C20.9006 11.0821 20.5588 11.5974 20.1303 12.0281L12.472 20L4.81357 12.0281C3.97249 11.1525 3.5 9.96498 3.5 8.72682C3.5 7.48865 3.97249 6.30117 4.81357 5.42552V5.42552Z" stroke-width="2" stroke-linejoin="round"/></g></symbol><use xlink:href="#Heart" width="25" height="24" y="424"/><symbol id="helmet" viewBox="0 0 21 20"><path d="M3.78125 15.3481C3.94348 15.7262 4.26911 16.0256 4.68049 16.1432L8.26298 17.1667C8.35993 17.1944 8.46026 17.2085 8.56118 17.2085H12.108C12.2089 17.2085 12.3092 17.1944 12.4061 17.1667L15.9887 16.1431C16.4001 16.0256 16.7257 15.7262 16.8879 15.3482H3.78125V15.3481Z"/><path d="M10.6442 2.7915H10.0241C9.25482 2.7915 8.62891 3.41739 8.62891 4.18674V4.3143V7.44226C8.62891 8.21158 9.25479 8.8375 10.0241 8.8375H10.6442C11.4135 8.8375 12.0395 8.21161 12.0395 7.44226V4.31427V4.1867C12.0395 3.41739 11.4135 2.7915 10.6442 2.7915Z"/><path d="M17.0008 10.3876V8.76004C17.0008 6.85635 15.7092 5.21106 13.86 4.75903L12.9701 4.5415V7.44212C12.9701 8.72433 11.927 9.76748 10.6448 9.76748H10.0247C8.74246 9.76748 7.69931 8.72433 7.69931 7.44212V4.5415L6.80948 4.75903C4.96024 5.21106 3.66867 6.85632 3.66867 8.76004V10.3876C2.89932 10.3876 2.27344 11.0135 2.27344 11.7828V13.023C2.27344 13.7923 2.89932 14.4182 3.66867 14.4182H17.0008C17.7701 14.4182 18.396 13.7923 18.396 13.023V11.7828C18.396 11.0135 17.7701 10.3876 17.0008 10.3876Z"/></symbol><use xlink:href="#helmet" width="21" height="20" y="448"/><symbol id="Home" viewBox="0 0 16 16"><g id="16px / Home"><path id="Icon (Stroke)" fill-rule="evenodd" clip-rule="evenodd" d="M8.09032 2.693C8.03835 2.65786 7.96197 2.65786 7.91001 2.693L2.71001 6.20957C2.67475 6.23342 2.66683 6.26141 2.66683 6.27735V12.8588C2.66683 13.0897 2.87365 13.3333 3.20016 13.3333H5.3335V9.4352C5.3335 8.61566 6.02211 8.00774 6.80016 8.00774H9.20016C9.97822 8.00774 10.6668 8.61566 10.6668 9.4352V13.3333H12.8002C13.1267 13.3333 13.3335 13.0897 13.3335 12.8588V6.27735C13.3335 6.26141 13.3256 6.23342 13.2903 6.20957L8.09032 2.693ZM12.8002 14.6666C13.7991 14.6666 14.6668 13.8884 14.6668 12.8588V6.27735C14.6668 5.80076 14.4241 5.36668 14.0372 5.10509L8.83724 1.58852C8.33407 1.24824 7.66625 1.24824 7.16308 1.58852L1.96308 5.10509C1.57627 5.36668 1.3335 5.80076 1.3335 6.27735V12.8588C1.3335 13.8884 2.20119 14.6666 3.20016 14.6666H12.8002ZM9.3335 13.3333V9.4352C9.3335 9.42033 9.32828 9.40111 9.30643 9.38033C9.28399 9.35899 9.24787 9.34107 9.20016 9.34107H6.80016C6.75245 9.34107 6.71634 9.35899 6.6939 9.38033C6.67204 9.40111 6.66683 9.42033 6.66683 9.4352V13.3333H9.3335Z"/></g></symbol><use xlink:href="#Home" width="16" height="16" y="468"/><symbol id="laser" viewBox="0 0 21 20"><path d="M17.8287 15.0474H12.1698C11.9164 15.0474 11.7109 15.2528 11.7109 15.5062V17.4945C11.7109 17.7479 11.9164 17.9533 12.1698 17.9533H17.8287C18.0821 17.9533 18.2875 17.7478 18.2875 17.4945V15.5062C18.2875 15.2528 18.0821 15.0474 17.8287 15.0474Z"/><path d="M8.49863 15.0474H2.83969C2.5863 15.0474 2.38086 15.2528 2.38086 15.5062V17.4945C2.38086 17.7478 2.5863 17.9533 2.83969 17.9533H8.49863C8.75204 17.9533 8.95746 17.7478 8.95746 17.4945V15.5062C8.95746 15.2528 8.75208 15.0474 8.49863 15.0474Z"/><path d="M14.3298 11.2052C14.1507 11.026 13.8601 11.026 13.681 11.2052L12.7633 12.1228C12.5841 12.302 12.5841 12.5925 12.7633 12.7717C12.8529 12.8613 12.9703 12.9061 13.0878 12.9061C13.2052 12.9061 13.3226 12.8613 13.4122 12.7717L14.3298 11.854C14.509 11.6749 14.509 11.3843 14.3298 11.2052Z"/><path d="M14.3286 13.0401C14.1495 12.861 13.8589 12.861 13.6798 13.0402L13.068 13.6519C12.8888 13.8311 12.8888 14.1216 13.068 14.3008C13.1576 14.3904 13.275 14.4352 13.3924 14.4352C13.5099 14.4352 13.6273 14.3904 13.7169 14.3008L14.3286 13.689C14.5078 13.5099 14.5078 13.2193 14.3286 13.0401Z"/><path d="M7.90602 12.1228L6.98837 11.2052C6.8092 11.026 6.51867 11.026 6.33947 11.2052C6.16028 11.3843 6.16028 11.6749 6.33947 11.8541L7.25716 12.7717C7.34672 12.8613 7.46415 12.9061 7.58159 12.9061C7.69902 12.9061 7.81645 12.8613 7.90602 12.7717C8.08521 12.5926 8.08521 12.302 7.90602 12.1228Z"/><path d="M7.60011 13.6519L6.98834 13.0401C6.80918 12.861 6.51864 12.861 6.33945 13.0401C6.16028 13.2193 6.16028 13.5099 6.33948 13.689L6.95125 14.3008C7.04081 14.3904 7.15824 14.4352 7.27568 14.4352C7.39311 14.4352 7.51054 14.3904 7.60011 14.3008C7.7793 14.1216 7.7793 13.8311 7.60011 13.6519Z"/><path d="M8.65234 8.31738V13.0586C8.65234 13.3121 8.85779 13.5175 9.11117 13.5175H9.87588V17.494C9.87588 17.7474 10.0813 17.9529 10.3347 17.9529C10.5881 17.9529 10.7935 17.7474 10.7935 17.494V13.5175H11.5582C11.8116 13.5175 12.0171 13.312 12.0171 13.0586V8.31738H8.65234Z"/><path d="M17.8282 2.04688H2.83969C2.5863 2.04688 2.38086 2.25232 2.38086 2.5057V3.57633C2.38086 4.33532 2.99834 4.95284 3.75737 4.95284H7.42804V6.94111C7.42804 7.19452 7.63348 7.39994 7.88686 7.39994H8.65157H12.0164H12.7811C13.0345 7.39994 13.2399 7.19449 13.2399 6.94111V4.95284H16.9106C17.6696 4.95284 18.2871 4.33535 18.2871 3.57633V2.5057C18.2871 2.25232 18.0816 2.04688 17.8282 2.04688Z"/></symbol><use xlink:href="#laser" width="21" height="20" y="484"/><symbol id="Line" viewBox="0 0 37 37"><g id="Xnix/Line/"><g id="Vector"><path id="Vector-5" fill-rule="evenodd" clip-rule="evenodd" d="M18.5013 16.1L6.50195 11.3002L12.5016 8.90036L18.5013 6.50049L30.5006 11.3002L24.501 13.7001L18.5013 16.1Z" stroke-width="2.57129" stroke-linecap="round" stroke-linejoin="round"/><path id="Vector-6" d="M18.0238 31.6928C18.6831 31.9565 19.4313 31.6358 19.695 30.9765C19.9587 30.3173 19.638 29.5691 18.9788 29.3054L18.0238 31.6928ZM6.50195 25.6993H5.21631C5.21631 26.225 5.53637 26.6978 6.02448 26.893L6.50195 25.6993ZM7.7876 11.3001C7.7876 10.5901 7.21199 10.0145 6.50195 10.0145C5.79191 10.0145 5.21631 10.5901 5.21631 11.3001H7.7876ZM18.0242 29.3054C17.3649 29.5691 17.0443 30.3173 17.308 30.9765C17.5717 31.6358 18.3199 31.9565 18.9791 31.6928L18.0242 29.3054ZM30.501 25.6993L30.9785 26.893C31.4666 26.6978 31.7867 26.225 31.7867 25.6993H30.501ZM31.7867 11.3001C31.7867 10.5901 31.2111 10.0145 30.501 10.0145C29.791 10.0145 29.2154 10.5901 29.2154 11.3001H31.7867ZM17.2153 30.4993C17.2153 31.2094 17.7909 31.785 18.5009 31.785C19.211 31.785 19.7866 31.2094 19.7866 30.4993H17.2153ZM19.7866 16.1001C19.7866 15.3901 19.211 14.8145 18.5009 14.8145C17.7909 14.8145 17.2153 15.3901 17.2153 16.1001H19.7866ZM12.9787 7.7067C12.3195 7.443 11.5713 7.76366 11.3076 8.42291C11.0439 9.08217 11.3645 9.83038 12.0238 10.0941L12.9787 7.7067ZM24.5006 13.7001H25.7863C25.7863 13.1744 25.4662 12.7017 24.9781 12.5064L24.5006 13.7001ZM23.215 17.6428C23.215 18.3528 23.7906 18.9284 24.5006 18.9284C25.2107 18.9284 25.7863 18.3528 25.7863 17.6428H23.215ZM18.9788 29.3054L6.97943 24.5056L6.02448 26.893L18.0238 31.6928L18.9788 29.3054ZM7.7876 25.6993V11.3001H5.21631V25.6993H7.7876ZM18.9791 31.6928L30.9785 26.893L30.0235 24.5056L18.0242 29.3054L18.9791 31.6928ZM31.7867 25.6993V11.3001H29.2154V25.6993H31.7867ZM19.7866 30.4993V16.1001H17.2153V30.4993H19.7866ZM12.0238 10.0941L24.0231 14.8938L24.9781 12.5064L12.9787 7.7067L12.0238 10.0941ZM23.215 13.7001V17.6428H25.7863V13.7001H23.215Z"/></g></g></symbol><use xlink:href="#Line" width="37" height="37" y="504"/><symbol id="Map" viewBox="0 0 16 16"><g id="16px / Map"><g id="Icon"><path d="M8.00088 14.4001C8.00088 14.4001 13.0096 9.94792 13.0096 6.60879C13.0096 3.84257 10.7671 1.6001 8.00088 1.6001C5.23466 1.6001 2.99219 3.84257 2.99219 6.60879C2.99219 9.94792 8.00088 14.4001 8.00088 14.4001Z" stroke-width="1.33"/><path d="M9.60109 6.4002C9.60109 7.28385 8.88474 8.0002 8.00109 8.0002C7.11743 8.0002 6.40109 7.28385 6.40109 6.4002C6.40109 5.51654 7.11743 4.8002 8.00109 4.8002C8.88474 4.8002 9.60109 5.51654 9.60109 6.4002Z" stroke-width="1.33"/></g></g></symbol><use xlink:href="#Map" width="16" height="16" y="541"/><symbol id="mdi_eye" viewBox="0 0 20 21"><g id="mdi:eye" opacity="0.5"><path id="Vector" d="M10.0007 8C9.33761 8 8.70173 8.26339 8.23288 8.73223C7.76404 9.20107 7.50065 9.83696 7.50065 10.5C7.50065 11.163 7.76404 11.7989 8.23288 12.2678C8.70173 12.7366 9.33761 13 10.0007 13C10.6637 13 11.2996 12.7366 11.7684 12.2678C12.2373 11.7989 12.5007 11.163 12.5007 10.5C12.5007 9.83696 12.2373 9.20107 11.7684 8.73223C11.2996 8.26339 10.6637 8 10.0007 8ZM10.0007 14.6667C8.89558 14.6667 7.83577 14.2277 7.05437 13.4463C6.27297 12.6649 5.83398 11.6051 5.83398 10.5C5.83398 9.39493 6.27297 8.33512 7.05437 7.55372C7.83577 6.77232 8.89558 6.33333 10.0007 6.33333C11.1057 6.33333 12.1655 6.77232 12.9469 7.55372C13.7283 8.33512 14.1673 9.39493 14.1673 10.5C14.1673 11.6051 13.7283 12.6649 12.9469 13.4463C12.1655 14.2277 11.1057 14.6667 10.0007 14.6667ZM10.0007 4.25C5.83398 4.25 2.27565 6.84167 0.833984 10.5C2.27565 14.1583 5.83398 16.75 10.0007 16.75C14.1673 16.75 17.7257 14.1583 19.1673 10.5C17.7257 6.84167 14.1673 4.25 10.0007 4.25Z"/></g></symbol><use xlink:href="#mdi_eye" width="20" height="21" y="557"/><symbol id="Minus" viewBox="0 0 24 24"><g id="24px/ Minus"><path id="Icon" d="M19.2 12L4.80005 12" stroke-width="2" stroke-linecap="round"/></g></symbol><use xlink:href="#Minus" width="24" height="24" y="578"/><symbol id="Play" viewBox="0 0 26 26"><g id="24 / Media / Play"><path id="Union" fill-rule="evenodd" clip-rule="evenodd" d="M19.6353 12.2983L8.33139 5.04702C7.78259 4.69497 7.0647 5.09267 7.0647 5.74871V20.2513C7.0647 20.9073 7.78258 21.305 8.33138 20.953L19.6353 13.7017C20.1447 13.375 20.1447 12.625 19.6353 12.2983ZM20.52 10.8949L9.21608 3.64363C7.56969 2.5875 5.41602 3.78055 5.41602 5.74871V20.2513C5.41602 22.2194 7.56969 23.4125 9.21607 22.3564L20.52 15.1051C22.048 14.1249 22.048 11.8751 20.52 10.8949Z"/></g></symbol><use xlink:href="#Play" width="26" height="26" y="602"/><symbol id="Plus" viewBox="0 0 24 24"><g id="24px / Plus"><path id="Icon" d="M12.0001 4.80005L12 19.2M19.2 12L4.80005 12" stroke-width="2" stroke-linecap="round"/></g></symbol><use xlink:href="#Plus" width="24" height="24" y="628"/><symbol id="press" viewBox="0 0 21 20"><path d="M15.9966 10.7837H5.33493C4.55686 10.7837 3.92383 11.4167 3.92383 12.1948V13.4491C3.92383 14.2272 4.55683 14.8602 5.33493 14.8602H15.9965C16.7746 14.8602 17.4076 14.2272 17.4076 13.4491V12.1948C17.4076 11.4167 16.7746 10.7837 15.9966 10.7837Z"/><path d="M15.9966 5.13965H5.33493C4.55686 5.13965 3.92383 5.77265 3.92383 6.55075V7.80507C3.92383 8.58314 4.55683 9.21618 5.33493 9.21618H15.9965C16.7746 9.21618 17.4076 8.58317 17.4076 7.80507V6.55075C17.4076 5.77265 16.7746 5.13965 15.9966 5.13965Z"/><path d="M5.43945 15.8013L5.66892 17.006C5.79554 17.6707 6.37851 18.1531 7.05512 18.1531H10.1964V15.8013H5.43945Z"/><path d="M11.1367 15.8013V18.1531H14.278C14.9546 18.1531 15.5376 17.6707 15.6642 17.006L15.8936 15.8013H11.1367Z"/><path d="M15.6642 2.99422C15.5376 2.32956 14.9546 1.84717 14.278 1.84717H11.1367V4.19899H15.8936L15.6642 2.99422Z"/><path d="M7.05512 1.84717C6.37851 1.84717 5.79554 2.32956 5.66892 2.99422L5.43945 4.19899H10.1964V1.84717H7.05512Z"/></symbol><use xlink:href="#press" width="21" height="20" y="652"/><symbol id="Rub" viewBox="0 0 24 24"><g id="24px / Rub"><path id="Icon" d="M9.32766 16.8004V7.20039H13.9095C14.5171 7.20039 15.0998 7.41713 15.5294 7.80292C15.959 8.18871 16.2004 8.71195 16.2004 9.25754C16.2004 9.80312 15.959 10.3264 15.5294 10.7122C15.0998 11.0979 14.5171 11.3147 13.9095 11.3147H7.80039M13.9095 14.0575H7.80039M21.6004 12.0004C21.6004 17.3023 17.3023 21.6004 12.0004 21.6004C6.69846 21.6004 2.40039 17.3023 2.40039 12.0004C2.40039 6.69846 6.69846 2.40039 12.0004 2.40039C17.3023 2.40039 21.6004 6.69846 21.6004 12.0004Z" stroke-width="2" stroke-linecap="round" stroke-linejoin="round"/></g></symbol><use xlink:href="#Rub" width="24" height="24" y="672"/><symbol id="saw" viewBox="0 0 20 20"><path d="M17.828 7.7883C17.7224 7.60545 17.5241 7.49525 17.3143 7.49998L15.7874 7.53701C15.4817 7.16658 15.1413 6.82619 14.7709 6.52057L14.8079 4.99361C14.8131 4.78256 14.7025 4.58557 14.5197 4.47998C14.3368 4.37439 14.1109 4.37713 13.9307 4.48713L12.629 5.28135C12.1786 5.11283 11.7127 4.98822 11.2376 4.90932L10.5069 3.56971C10.4059 3.38439 10.2116 3.26904 10.0005 3.26904C9.78938 3.26904 9.59513 3.38439 9.49407 3.56971L8.76333 4.90932C8.28825 4.98826 7.82227 5.11287 7.372 5.28135L6.07024 4.48713C5.89001 4.37717 5.66407 4.37443 5.4813 4.47998C5.29845 4.58557 5.18786 4.78256 5.19302 4.99361L5.23005 6.52057C4.85962 6.82623 4.51927 7.16662 4.2136 7.53701L2.68665 7.49998C2.47528 7.49529 2.27856 7.60549 2.17302 7.7883C2.06743 7.97111 2.07016 8.19705 2.18016 8.37725L2.97438 9.67896C2.8647 9.97217 2.77391 10.2721 2.70192 10.5767H5.1052C5.81958 8.56213 7.74407 7.11521 10.0005 7.11521C12.257 7.11521 14.1815 8.56213 14.8958 10.5767H17.2991C17.2271 10.2721 17.1363 9.97217 17.0266 9.67896L17.8209 8.37725C17.9308 8.19701 17.9336 7.97111 17.828 7.7883Z"/><path d="M9.99981 8.26904C8.39207 8.26904 7.00094 9.21354 6.35156 10.5767H7.69367C8.22047 9.87658 9.05809 9.42291 9.99981 9.42291C10.9415 9.42291 11.7791 9.87662 12.3059 10.5767H13.648C12.9987 9.21357 11.6075 8.26904 9.99981 8.26904Z"/><path d="M18.5071 11.7477C18.4993 11.7466 18.4916 11.7457 18.4838 11.7447C18.4568 11.7413 18.4295 11.7386 18.4021 11.7365C18.393 11.7358 18.3838 11.735 18.3746 11.7345C18.3397 11.7324 18.3046 11.731 18.2692 11.731H1.73078C1.69535 11.731 1.66027 11.7323 1.62539 11.7345C1.61621 11.7351 1.60703 11.7358 1.59789 11.7365C1.57047 11.7386 1.54324 11.7413 1.51621 11.7447C1.50844 11.7457 1.50066 11.7466 1.49293 11.7477C0.650781 11.864 0 12.5881 0 13.4617V15.0002C0 15.9545 0.776406 16.731 1.73078 16.731H18.2693C19.2236 16.731 20 15.9545 20 15.0002V13.4617C20 12.5881 19.3492 11.864 18.5071 11.7477Z"/></symbol><use xlink:href="#saw" width="20" height="20" y="696"/><symbol id="Search" viewBox="0 0 24 24"><g id="24px / Search"><path id="Icon (Stroke)" fill-rule="evenodd" clip-rule="evenodd" d="M11.441 4.59754C7.66201 4.59754 4.59852 7.66103 4.59852 11.44C4.59852 15.219 7.66201 18.2825 11.441 18.2825C13.3044 18.2825 14.9938 17.5377 16.2278 16.3295C16.2293 16.328 16.2308 16.3265 16.2323 16.325C17.4982 15.0833 18.2835 13.3534 18.2835 11.44C18.2835 7.66103 15.22 4.59754 11.441 4.59754ZM18.3153 16.9944C19.5431 15.4767 20.2785 13.5442 20.2785 11.44C20.2785 6.55922 16.3218 2.60254 11.441 2.60254C6.5602 2.60254 2.60352 6.55922 2.60352 11.44C2.60352 16.3209 6.5602 20.2775 11.441 20.2775C13.4987 20.2775 15.392 19.5743 16.894 18.3951L19.7075 21.117C20.1034 21.5 20.7349 21.4895 21.1179 21.0936C21.501 20.6977 21.4905 20.0662 21.0946 19.6831L18.3153 16.9944Z"/></g></symbol><use xlink:href="#Search" width="24" height="24" y="716"/><symbol id="TG" viewBox="0 0 20 20"><g id="24px/TG"><path id="Vector" fill-rule="evenodd" clip-rule="evenodd" d="M2.75447 9.07292C7.00469 7.19128 9.83884 5.95079 11.2569 5.35144C15.3058 3.64019 16.1471 3.34293 16.6955 3.33311C16.8161 3.33095 17.0858 3.36133 17.2604 3.50535C17.4079 3.62697 17.4485 3.79125 17.4679 3.90656C17.4874 4.02186 17.5115 4.28453 17.4923 4.48977C17.2729 6.83234 16.3235 12.5171 15.8405 15.1409C15.6362 16.2511 15.2337 16.6233 14.8442 16.6597C13.9975 16.7389 13.3546 16.0912 12.5345 15.545C11.2514 14.6902 10.5264 14.1582 9.28089 13.3241C7.84144 12.3602 8.77457 11.8305 9.59491 10.9647C9.8096 10.7381 13.54 7.29024 13.6122 6.97746C13.6212 6.93835 13.6296 6.79253 13.5444 6.71554C13.4591 6.63855 13.3333 6.66487 13.2425 6.68581C13.1138 6.7155 11.0639 8.09228 7.09278 10.8162C6.51092 11.2222 5.98389 11.42 5.51169 11.4096C4.99113 11.3982 3.98978 11.1105 3.24537 10.8646C2.33233 10.563 1.60666 10.4036 1.66985 9.89142C1.70276 9.62464 2.06431 9.35181 2.75447 9.07292Z"/></g></symbol><use xlink:href="#TG" width="20" height="20" y="740"/><symbol id="Truck_Loading" viewBox="0 0 36 36"><g id="Xnix/Line/Truck_Loading"><g id="Vector"><path id="Vector-15" fill-rule="evenodd" clip-rule="evenodd" d="M13.377 25.4414C13.3989 26.705 12.6546 27.8564 11.4935 28.3552C10.3323 28.854 8.98481 28.6012 8.08341 27.7155C7.18201 26.8297 6.90567 25.4868 7.38409 24.3171C7.86251 23.1474 9.00071 22.3831 10.2645 22.3829C11.0828 22.3757 11.8705 22.6939 12.4542 23.2675C13.0379 23.8411 13.3698 24.6231 13.377 25.4414Z" stroke-width="2.25" stroke-linecap="round" stroke-linejoin="round"/><path id="Vector-16" fill-rule="evenodd" clip-rule="evenodd" d="M28.1992 25.4414C28.2212 26.705 27.4769 27.8564 26.3157 28.3552C25.1546 28.854 23.8071 28.6012 22.9057 27.7155C22.0043 26.8297 21.7279 25.4868 22.2064 24.3171C22.6848 23.1474 23.823 22.3831 25.0867 22.3829C25.9051 22.3757 26.6927 22.6939 27.2765 23.2675C27.8602 23.8411 28.1921 24.6231 28.1992 25.4414V25.4414Z" stroke-width="2.25" stroke-linecap="round" stroke-linejoin="round"/><path id="Vector-17" fill-rule="evenodd" clip-rule="evenodd" d="M4.5 13.1279V20.0579H13.737V13.1279H4.5Z" stroke-width="2.25" stroke-linecap="round" stroke-linejoin="round"/><path id="Vector-18" d="M21.615 26.5665C22.2363 26.5665 22.74 26.0628 22.74 25.4415C22.74 24.8202 22.2363 24.3165 21.615 24.3165V26.5665ZM13.377 24.3165C12.7557 24.3165 12.252 24.8202 12.252 25.4415C12.252 26.0628 12.7557 26.5665 13.377 26.5665V24.3165ZM21.6139 24.3166C20.9926 24.3166 20.4889 24.8203 20.4889 25.4416C20.4889 26.0629 20.9926 26.5666 21.6139 26.5666V24.3166ZM21.9799 26.5666C22.6012 26.5666 23.1049 26.0629 23.1049 25.4416C23.1049 24.8203 22.6012 24.3166 21.9799 24.3166V26.5666ZM20.49 25.4415C20.49 26.0628 20.9937 26.5665 21.615 26.5665C22.2363 26.5665 22.74 26.0628 22.74 25.4415H20.49ZM22.74 20.058C22.74 19.4367 22.2363 18.933 21.615 18.933C20.9937 18.933 20.49 19.4367 20.49 20.058H22.74ZM28.2012 24.3165C27.5799 24.3165 27.0762 24.8202 27.0762 25.4415C27.0762 26.0628 27.5799 26.5665 28.2012 26.5665V24.3165ZM31.5012 22.1415H32.6262C32.6262 22.0728 32.6199 22.0041 32.6073 21.9365L31.5012 22.1415ZM31.8453 17.825C31.7321 17.2141 31.1451 16.8106 30.5342 16.9239C29.9232 17.0371 29.5198 17.6241 29.633 18.235L31.8453 17.825ZM21.615 10.317C20.9937 10.317 20.49 10.8207 20.49 11.442C20.49 12.0633 20.9937 12.567 21.615 12.567V10.317ZM26.832 11.442V12.567C26.8482 12.567 26.8644 12.5666 26.8806 12.5659L26.832 11.442ZM29.967 13.8315L28.8704 14.0825C28.8739 14.098 28.8778 14.1134 28.882 14.1287L29.967 13.8315ZM30.126 14.7315L29.0048 14.8241C29.0079 14.8617 29.0129 14.8991 29.0198 14.9362L30.126 14.7315ZM29.6303 18.2362C29.7433 18.8471 30.3302 19.2508 30.9412 19.1377C31.5521 19.0247 31.9558 18.4378 31.8427 17.8268L29.6303 18.2362ZM22.74 11.442C22.74 10.8207 22.2363 10.317 21.615 10.317C20.9937 10.317 20.49 10.8207 20.49 11.442H22.74ZM20.49 18.03C20.49 18.6513 20.9937 19.155 21.615 19.155C22.2363 19.155 22.74 18.6513 22.74 18.03H20.49ZM20.49 11.442C20.49 12.0633 20.9937 12.567 21.615 12.567C22.2363 12.567 22.74 12.0633 22.74 11.442H20.49ZM21.615 7.5H22.74C22.74 6.87868 22.2363 6.375 21.615 6.375V7.5ZM10.1835 7.5V6.375C9.56218 6.375 9.0585 6.87868 9.0585 7.5H10.1835ZM9.0585 13.128C9.0585 13.7493 9.56218 14.253 10.1835 14.253C10.8048 14.253 11.3085 13.7493 11.3085 13.128H9.0585ZM22.74 18.03C22.74 17.4087 22.2363 16.905 21.615 16.905C20.9937 16.905 20.49 17.4087 20.49 18.03H22.74ZM20.49 20.058C20.49 20.6793 20.9937 21.183 21.615 21.183C22.2363 21.183 22.74 20.6793 22.74 20.058H20.49ZM21.615 16.905C20.9937 16.905 20.49 17.4087 20.49 18.03C20.49 18.6513 20.9937 19.155 21.615 19.155V16.905ZM30.738 19.155C31.3593 19.155 31.863 18.6513 31.863 18.03C31.863 17.4087 31.3593 16.905 30.738 16.905V19.155ZM7.1535 26.5665C7.77482 26.5665 8.2785 26.0628 8.2785 25.4415C8.2785 24.8202 7.77482 24.3165 7.1535 24.3165V26.5665ZM6.0555 25.4415V24.3165C6.05034 24.3165 6.04518 24.3165 6.04002 24.3166L6.0555 25.4415ZM4.96373 25.0064L5.74866 24.2005H5.74866L4.96373 25.0064ZM4.5 23.9265H3.375C3.375 23.9312 3.37503 23.936 3.37509 23.9407L4.5 23.9265ZM4.5 20.058V18.933C3.87868 18.933 3.375 19.4367 3.375 20.058H4.5ZM21.615 21.183C22.2363 21.183 22.74 20.6793 22.74 20.058C22.74 19.4367 22.2363 18.933 21.615 18.933V21.183ZM21.615 24.3165H13.377V26.5665H21.615V24.3165ZM21.6139 26.5666H21.9799V24.3166H21.6139V26.5666ZM22.74 25.4415V20.058H20.49V25.4415H22.74ZM28.2012 26.5665C30.645 26.5665 32.6262 24.5854 32.6262 22.1415H30.3762C30.3762 23.3427 29.4024 24.3165 28.2012 24.3165V26.5665ZM32.6073 21.9365L31.8453 17.825L29.633 18.235L30.395 22.3465L32.6073 21.9365ZM21.615 12.567H26.832V10.317H21.615V12.567ZM26.8806 12.5659C27.8229 12.5252 28.6599 13.1631 28.8704 14.0825L31.0636 13.5805C30.6109 11.6027 28.8104 10.2303 26.7834 10.3181L26.8806 12.5659ZM28.882 14.1287C28.9443 14.3562 28.9854 14.589 29.0048 14.8241L31.2472 14.6389C31.2163 14.2655 31.151 13.8957 31.052 13.5343L28.882 14.1287ZM29.0198 14.9362L29.6303 18.2362L31.8427 17.8268L31.2322 14.5268L29.0198 14.9362ZM20.49 11.442V18.03H22.74V11.442H20.49ZM22.74 11.442V7.5H20.49V11.442H22.74ZM21.615 6.375H10.1835V8.625H21.615V6.375ZM9.0585 7.5V13.128H11.3085V7.5H9.0585ZM20.49 18.03V20.058H22.74V18.03H20.49ZM21.615 19.155H30.738V16.905H21.615V19.155ZM7.1535 24.3165H6.0555V26.5665H7.1535V24.3165ZM6.04002 24.3166C5.93134 24.3181 5.82652 24.2763 5.74866 24.2005L4.17879 25.8123C4.68446 26.3048 5.36518 26.5761 6.07098 26.5664L6.04002 24.3166ZM5.74866 24.2005C5.6708 24.1247 5.62628 24.021 5.62491 23.9123L3.37509 23.9407C3.38399 24.6465 3.67313 25.3198 4.17879 25.8123L5.74866 24.2005ZM5.625 23.9265V20.058H3.375V23.9265H5.625ZM4.5 21.183H21.615V18.933H4.5V21.183Z"/></g></g></symbol><use xlink:href="#Truck_Loading" width="36" height="36" y="760"/><symbol id="Truck_Speed" viewBox="0 0 40 36"><g id="Xnix/Line/Truck_Speed"><g id="Vector"><path id="Vector-4" fill-rule="evenodd" clip-rule="evenodd" d="M19.401 25.2385C19.3648 26.994 17.9187 28.3913 16.1629 28.3672C14.4072 28.3432 13 26.9068 13.0118 25.151C13.0236 23.3952 14.4502 21.9779 16.206 21.9775C17.0622 21.9862 17.8798 22.3347 18.479 22.9463C19.0782 23.5578 19.4098 24.3824 19.401 25.2385V25.2385Z" stroke-width="2.25" stroke-linecap="round" stroke-linejoin="round"/><path id="Vector-5" fill-rule="evenodd" clip-rule="evenodd" d="M34.6178 25.2385C34.5816 26.994 33.1355 28.3913 31.3797 28.3672C29.624 28.3432 28.2167 26.9068 28.2286 25.151C28.2404 23.3952 29.667 21.9779 31.4228 21.9775C32.279 21.9862 33.0966 22.3347 33.6958 22.9463C34.2949 23.5578 34.6266 24.3824 34.6178 25.2385V25.2385Z" stroke-width="2.25" stroke-linecap="round" stroke-linejoin="round"/><path id="Vector-6" d="M27.8504 26.3643C28.4717 26.3643 28.9754 25.8606 28.9754 25.2393C28.9754 24.6179 28.4717 24.1143 27.8504 24.1143V26.3643ZM19.3994 24.1143C18.7781 24.1143 18.2744 24.6179 18.2744 25.2393C18.2744 25.8606 18.7781 26.3643 19.3994 26.3643V24.1143ZM26.7324 25.2391C26.7324 25.8604 27.2361 26.3641 27.8574 26.3641C28.4787 26.3641 28.9824 25.8604 28.9824 25.2391H26.7324ZM28.9824 17.3386C28.9824 16.7173 28.4787 16.2136 27.8574 16.2136C27.2361 16.2136 26.7324 16.7173 26.7324 17.3386H28.9824ZM27.8567 24.1143C27.2354 24.1143 26.7317 24.6179 26.7317 25.2393C26.7317 25.8606 27.2354 26.3643 27.8567 26.3643V24.1143ZM28.2332 26.3643C28.8545 26.3643 29.3582 25.8606 29.3582 25.2393C29.3582 24.6179 28.8545 24.1143 28.2332 24.1143V26.3643ZM34.5998 24.1144C33.9786 24.1275 33.4857 24.6417 33.4988 25.2629C33.5119 25.8841 34.0261 26.377 34.6473 26.3639L34.5998 24.1144ZM38 21.7276L39.1249 21.7073C39.1238 21.6479 39.118 21.5886 39.1075 21.53L38 21.7276ZM38.3246 17.141C38.2154 16.5294 37.6311 16.122 37.0195 16.2311C36.4078 16.3402 36.0004 16.9245 36.1095 17.5362L38.3246 17.141ZM27.8516 9.1905C27.2302 9.1905 26.7266 9.69418 26.7266 10.3155C26.7266 10.9368 27.2302 11.4405 27.8516 11.4405V9.1905ZM33.2081 10.3155V11.4405L33.2152 11.4405L33.2081 10.3155ZM35.6524 11.3458L34.8422 12.1263L35.6524 11.3458ZM36.5906 13.827L35.4666 13.7778C35.463 13.8605 35.4685 13.9433 35.4831 14.0247L36.5906 13.827ZM36.1101 17.5362C36.2193 18.1479 36.8037 18.5552 37.4153 18.446C38.027 18.3368 38.4343 17.7524 38.325 17.1407L36.1101 17.5362ZM28.9766 10.3154C28.9766 9.69411 28.4729 9.19043 27.8516 9.19043C27.2302 9.19043 26.7266 9.69411 26.7266 10.3154H28.9766ZM26.7266 17.3384C26.7266 17.9598 27.2302 18.4634 27.8516 18.4634C28.4729 18.4634 28.9766 17.9598 28.9766 17.3384H26.7266ZM26.7253 10.3155C26.7253 10.9368 27.229 11.4405 27.8503 11.4405C28.4716 11.4405 28.9753 10.9368 28.9753 10.3155H26.7253ZM27.8503 9.1155L26.7253 9.10812V9.1155H27.8503ZM26.2543 7.5L26.2606 6.375H26.2543V7.5ZM11.8768 7.5V6.37499L11.8716 6.37501L11.8768 7.5ZM10.7441 7.97539L9.9449 7.18362L9.9449 7.18362L10.7441 7.97539ZM10.2793 9.1125H11.4043L11.4043 9.10723L10.2793 9.1125ZM10.2793 23.625L11.4043 23.6303V23.625H10.2793ZM10.7441 24.7621L9.9449 25.5539H9.9449L10.7441 24.7621ZM11.8768 25.2375L11.8716 26.3625H11.8768V25.2375ZM13.0033 26.3625C13.6246 26.3625 14.1283 25.8588 14.1283 25.2375C14.1283 24.6162 13.6246 24.1125 13.0033 24.1125V26.3625ZM27.8545 16.2122C27.2332 16.2122 26.7295 16.7158 26.7295 17.3372C26.7295 17.9585 27.2332 18.4622 27.8545 18.4622V16.2122ZM37.2205 18.4622C37.8418 18.4622 38.3455 17.9585 38.3455 17.3372C38.3455 16.7158 37.8418 16.2122 37.2205 16.2122V18.4622ZM2 9.375C1.37868 9.375 0.875 9.87868 0.875 10.5C0.875 11.1213 1.37868 11.625 2 11.625V9.375ZM6.695 11.625C7.31632 11.625 7.82 11.1213 7.82 10.5C7.82 9.87868 7.31632 9.375 6.695 9.375V11.625ZM3.5 13.875C2.87868 13.875 2.375 14.3787 2.375 15C2.375 15.6213 2.87868 16.125 3.5 16.125V13.875ZM6.5 16.125C7.12132 16.125 7.625 15.6213 7.625 15C7.625 14.3787 7.12132 13.875 6.5 13.875V16.125ZM4.41553 18.375C3.79421 18.375 3.29053 18.8787 3.29053 19.5C3.29053 20.1213 3.79421 20.625 4.41553 20.625V18.375ZM6.50053 20.625C7.12185 20.625 7.62553 20.1213 7.62553 19.5C7.62553 18.8787 7.12185 18.375 6.50053 18.375V20.625ZM27.8504 24.1143H19.3994V26.3643H27.8504V24.1143ZM28.9824 25.2391V17.3386H26.7324V25.2391H28.9824ZM27.8567 26.3643H28.2332V24.1143H27.8567V26.3643ZM34.6473 26.3639C37.1679 26.3106 39.1704 24.2281 39.1249 21.7073L36.8752 21.7479C36.8983 23.029 35.8807 24.0873 34.5998 24.1144L34.6473 26.3639ZM39.1075 21.53L38.3246 17.141L36.1095 17.5362L36.8925 21.9252L39.1075 21.53ZM27.8516 11.4405H33.2081V9.1905H27.8516V11.4405ZM33.2152 11.4405C33.8285 11.4366 34.4167 11.6845 34.8422 12.1263L36.4627 10.5653C35.6096 9.67971 34.4306 9.18277 33.201 9.19052L33.2152 11.4405ZM34.8422 12.1263C35.2677 12.568 35.4935 13.165 35.4666 13.7778L37.7145 13.8762C37.7682 12.6477 37.3158 11.4509 36.4627 10.5653L34.8422 12.1263ZM35.4831 14.0247L36.1101 17.5362L38.325 17.1407L37.698 13.6292L35.4831 14.0247ZM26.7266 10.3154V17.3384H28.9766V10.3154H26.7266ZM28.9753 10.3155V9.1155H26.7253V10.3155H28.9753ZM28.9753 9.12288C28.98 8.39839 28.6966 7.70173 28.1874 7.18633L26.5868 8.76763C26.6763 8.85825 26.7262 8.98074 26.7253 9.10812L28.9753 9.12288ZM28.1874 7.18633C27.6783 6.67093 26.9851 6.37906 26.2606 6.37502L26.248 8.62498C26.3754 8.62569 26.4973 8.67701 26.5868 8.76763L28.1874 7.18633ZM26.2543 6.375H11.8768V8.625H26.2543V6.375ZM11.8716 6.37501C11.1475 6.37839 10.4545 6.66925 9.9449 7.18362L11.5433 8.76716C11.6329 8.67672 11.7548 8.62558 11.8821 8.62499L11.8716 6.37501ZM9.9449 7.18362C9.43531 7.69799 9.15094 8.39373 9.15433 9.11777L11.4043 9.10723C11.4037 8.97993 11.4537 8.8576 11.5433 8.76716L9.9449 7.18362ZM9.15431 9.1125V23.625H11.4043V9.1125H9.15431ZM9.15433 23.6197C9.15094 24.3438 9.43531 25.0395 9.9449 25.5539L11.5433 23.9703C11.4537 23.8799 11.4037 23.7576 11.4043 23.6303L9.15433 23.6197ZM9.9449 25.5539C10.4545 26.0682 11.1475 26.3591 11.8716 26.3625L11.8821 24.1125C11.7548 24.1119 11.6329 24.0608 11.5433 23.9703L9.9449 25.5539ZM11.8768 26.3625H13.0033V24.1125H11.8768V26.3625ZM27.8545 18.4622H37.2205V16.2122H27.8545V18.4622ZM2 11.625H6.695V9.375H2V11.625ZM3.5 16.125H6.5V13.875H3.5V16.125ZM4.41553 20.625H6.50053V18.375H4.41553V20.625Z"/></g></g></symbol><use xlink:href="#Truck_Speed" width="40" height="36" y="796"/><symbol id="User" viewBox="0 0 25 24"><g id="24px / User"><path id="Icon" d="M20.4997 21L20.5 17.6253C20.5002 15.7612 18.9651 14.25 17.0714 14.25H7.92902C6.03559 14.25 4.5006 15.7608 4.50039 17.6246L4.5 21M15.9288 6.375C15.9288 8.23896 14.3937 9.75 12.5002 9.75C10.6066 9.75 9.07152 8.23896 9.07152 6.375C9.07152 4.51104 10.6066 3 12.5002 3C14.3937 3 15.9288 4.51104 15.9288 6.375Z" stroke-width="2" stroke-linecap="round" stroke-linejoin="round"/></g></symbol><use xlink:href="#User" width="25" height="24" y="832"/><symbol id="VK" viewBox="0 0 20 20"><g id="24px/VK"><path id="Vector" d="M10.8932 15.8337C4.05994 15.8337 0.162408 11.4543 0 4.16699H3.42287C3.5353 9.51567 6.05867 11.7813 8.05739 12.2484V4.16699H11.2805V8.7799C13.2543 8.58138 15.3277 6.4793 16.0273 4.16699H19.2503C18.7132 7.01652 16.4646 9.11859 14.8656 9.98278C16.4646 10.6835 19.0256 12.517 20 15.8337H16.4521C15.6901 13.6148 13.7914 11.898 11.2805 11.6645V15.8337H10.8932Z"/></g></symbol><use xlink:href="#VK" width="20" height="20" y="856"/><symbol id="welder" viewBox="0 0 20 20"><path d="M12.2381 7.28174H7.76094C7.49643 7.28174 7.28125 7.49691 7.28125 7.76142V9.6802C7.28125 9.94472 7.49643 10.1599 7.76094 10.1599H12.2381C12.5026 10.1599 12.7178 9.94472 12.7178 9.6802V7.76142C12.7178 7.49691 12.5026 7.28174 12.2381 7.28174Z"/><path d="M10.9601 1.68555H9.04133C6.4845 1.68555 4.4043 3.76572 4.4043 6.32258V12.745C4.4043 14.3964 4.90766 15.9823 5.85999 17.3314L6.12424 17.7058C6.39349 18.0872 6.833 18.3149 7.29989 18.3149H12.7016C13.1685 18.3149 13.608 18.0872 13.8773 17.7058L14.1415 17.3314C15.0938 15.9823 15.5971 14.3963 15.5971 12.745V6.32258C15.5972 3.76572 13.517 1.68555 10.9601 1.68555ZM11.2799 14.9571H8.72157C8.45667 14.9571 8.24189 14.7423 8.24189 14.4774C8.24189 14.2125 8.45667 13.9977 8.72157 13.9977H11.2799C11.5448 13.9977 11.7596 14.2125 11.7596 14.4774C11.7596 14.7423 11.5448 14.9571 11.2799 14.9571ZM11.9195 13.0383H8.08196C7.81703 13.0383 7.60227 12.8235 7.60227 12.5586C7.60227 12.2937 7.81706 12.0789 8.08196 12.0789H11.9195C12.1844 12.0789 12.3992 12.2937 12.3992 12.5586C12.3992 12.8235 12.1844 13.0383 11.9195 13.0383ZM13.6784 9.68045C13.6784 10.474 13.0328 11.1195 12.2393 11.1195H7.76217C6.96867 11.1195 6.32308 10.474 6.32308 9.68045V7.76167C6.32308 6.96817 6.96863 6.32258 7.76217 6.32258H12.2393C13.0328 6.32258 13.6784 6.96814 13.6784 7.76167V9.68045Z"/><path d="M3.12464 6.32227C2.33111 6.32227 1.68555 6.96786 1.68555 7.76136V9.68014C1.68555 10.4736 2.33111 11.1192 3.12464 11.1192H3.44443V6.32227H3.12464Z"/><path d="M16.8764 6.32227H16.5566V11.1192H16.8764C17.6699 11.1192 18.3155 10.4736 18.3155 9.6801V7.76133C18.3155 6.96786 17.67 6.32227 16.8764 6.32227Z"/></symbol><use xlink:href="#welder" width="20" height="20" y="876"/><symbol id="X" viewBox="0 0 24 24"><g id="24px / X"><path id="Icon" d="M18 6L6 18M18 18L6 6" stroke-width="2" stroke-linecap="round"/></g></symbol><use xlink:href="#X" width="24" height="24" y="896"/><symbol id="Youtube" viewBox="0 0 20 20"><g id="fi_152810" clip-path="url(#clip0_18835_1088)"><g id="XMLID_822_"><path id="XMLID_823_" d="M19.2205 4.17017C18.4985 3.31198 17.1656 2.96191 14.6201 2.96191H5.37974C2.77594 2.96191 1.42045 3.33456 0.701226 4.24824C0 5.13908 0 6.45166 0 8.2683V11.7308C0 15.2502 0.832 17.0371 5.37974 17.0371H14.6201C16.8276 17.0371 18.0508 16.7282 18.8422 15.9709C19.6537 15.1942 20 13.9262 20 11.7308V8.2683C20 6.35249 19.9457 5.03217 19.2205 4.17017ZM12.8401 10.4776L8.64406 12.6706C8.55026 12.7196 8.44768 12.7439 8.34523 12.7439C8.22923 12.7439 8.11348 12.7127 8.01097 12.6506C7.81793 12.5337 7.70006 12.3244 7.70006 12.0988V7.72688C7.70006 7.50159 7.81761 7.29256 8.01026 7.17553C8.20297 7.05849 8.44265 7.05049 8.64258 7.15437L12.8386 9.3332C13.0521 9.44404 13.1861 9.66443 13.1865 9.90488C13.1867 10.1455 13.0532 10.3662 12.8401 10.4776Z"/></g></g><defs><clipPath id="clip0_18835_1088"><rect width="20" height="20"/></clipPath></defs></symbol><use xlink:href="#Youtube" width="20" height="20" y="920"/></svg>